0
SECTION
2
HEADER
9
$INSUNITS
70
1
0
ENDSEC
0
SECTION
2
TABLES
0
TABLE
2
LTYPE
0
LTYPE
72
65
70
64
2
CONTINUOUS
3
______
73
0
40
0
0
ENDTAB
0
TABLE
2
LAYER
0
ENDTAB
0
ENDSEC
0
SECTION
2
ENTITIES
0
LINE
8
front_outsideCutPath
10
0
20
5.479
11
0
21
4.43925
0
LINE
8
front_outsideCutPath
10
0
20
4.43925
11
0.177
21
4.43925
0
LINE
8
front_outsideCutPath
10
0.177
20
4.43925
11
0.177
21
3.34775
0
LINE
8
front_outsideCutPath
10
0.177
20
3.34775
11
0
21
3.34775
0
LINE
8
front_outsideCutPath
10
0
20
3.34775
11
0
21
2.25625
0
LINE
8
front_outsideCutPath
10
0
20
2.25625
11
0.177
21
2.25625
0
LINE
8
front_outsideCutPath
10
0.177
20
2.25625
11
0.177
21
1.16475
0
LINE
8
front_outsideCutPath
10
0.177
20
1.16475
11
0
21
1.16475
0
LINE
8
front_outsideCutPath
10
0
20
1.16475
11
0
21
0.125
0
LINE
8
front_outsideCutPath
10
0
20
0.125
11
1.53975
21
0.125
0
LINE
8
front_outsideCutPath
10
1.53975
20
0.125
11
1.53975
21
0.302
0
LINE
8
front_outsideCutPath
10
1.53975
20
0.302
11
2.63125
21
0.302
0
LINE
8
front_outsideCutPath
10
2.63125
20
0.302
11
2.63125
21
0.125
0
LINE
8
front_outsideCutPath
10
2.63125
20
0.125
11
3.72275
21
0.125
0
LINE
8
front_outsideCutPath
10
3.72275
20
0.125
11
3.72275
21
0.302
0
LINE
8
front_outsideCutPath
10
3.72275
20
0.302
11
4.81425
21
0.302
0
LINE
8
front_outsideCutPath
10
4.81425
20
0.302
11
4.81425
21
0.125
0
LINE
8
front_outsideCutPath
10
4.81425
20
0.125
11
5.90575
21
0.125
0
LINE
8
front_outsideCutPath
10
5.90575
20
0.125
11
6.354
21
0.125
0
LINE
8
front_outsideCutPath
10
6.354
20
0.125
11
6.354
21
1.16475
0
LINE
8
front_outsideCutPath
10
6.354
20
1.16475
11
6.177
21
1.16475
0
LINE
8
front_outsideCutPath
10
6.177
20
1.16475
11
6.177
21
2.25625
0
LINE
8
front_outsideCutPath
10
6.177
20
2.25625
11
6.354
21
2.25625
0
LINE
8
front_outsideCutPath
10
6.354
20
2.25625
11
6.354
21
3.34775
0
LINE
8
front_outsideCutPath
10
6.354
20
3.34775
11
6.177
21
3.34775
0
LINE
8
front_outsideCutPath
10
6.177
20
3.34775
11
6.177
21
4.43925
0
LINE
8
front_outsideCutPath
10
6.177
20
4.43925
11
6.354
21
4.43925
0
LINE
8
front_outsideCutPath
10
6.354
20
4.43925
11
6.354
21
5.479
0
LINE
8
front_outsideCutPath
10
6.354
20
5.479
11
4.81425
21
5.479
0
LINE
8
front_outsideCutPath
10
4.81425
20
5.479
11
4.81425
21
5.302
0
LINE
8
front_outsideCutPath
10
4.81425
20
5.302
11
3.72275
21
5.302
0
LINE
8
front_outsideCutPath
10
3.72275
20
5.302
11
3.72275
21
5.479
0
LINE
8
front_outsideCutPath
10
3.72275
20
5.479
11
2.63125
21
5.479
0
LINE
8
front_outsideCutPath
10
2.63125
20
5.479
11
2.63125
21
5.302
0
LINE
8
front_outsideCutPath
10
2.63125
20
5.302
11
1.53975
21
5.302
0
LINE
8
front_outsideCutPath
10
1.53975
20
5.302
11
1.53975
21
5.479
0
LINE
8
front_outsideCutPath
10
1.53975
20
5.479
11
0.44825
21
5.479
0
LINE
8
front_outsideCutPath
10
0.44825
20
5.479
11
0
21
5.479
0
LINE
8
front_labelLayer
10
2.2899823
20
2.970631
11
2.2899823
21
2.9031831
0
LINE
8
front_labelLayer
10
2.2899823
20
2.9031831
11
2.1441067
21
2.9031831
0
LINE
8
front_labelLayer
10
2.1441067
20
2.9031831
11
2.1441067
21
2.3975857
0
LINE
8
front_labelLayer
10
2.1441067
20
2.3975857
11
2.0573134
21
2.3975857
0
LINE
8
front_labelLayer
10
2.0573134
20
2.3975857
11
2.0573134
21
2.9031831
0
LINE
8
front_labelLayer
10
2.0573134
20
2.9031831
11
1.9548345
21
2.9031831
0
LINE
8
front_labelLayer
10
1.9548345
20
2.9031831
11
1.9548345
21
2.942397
0
LINE
8
front_labelLayer
10
1.9548345
20
2.942397
11
2.0573134
21
2.9737681
0
LINE
8
front_labelLayer
10
2.0573134
20
2.9737681
11
2.0573134
21
3.0056621
0
LINE
8
front_labelLayer
10
2.3485417
20
3.1985943
11
2.3260591
21
3.129055
0
LINE
8
front_labelLayer
10
2.1441067
20
3.0077535
11
2.1441067
21
2.970631
0
LINE
8
front_labelLayer
10
2.1441067
20
2.970631
11
2.2899823
21
2.970631
0
ARC
8
front_labelLayer
10
2.4090511
20
3.0097066
40
0.351761
50
167.5775189
51
180.6587968
0
ARC
8
front_labelLayer
10
2.243645
20
3.0482702
40
0.1819435
50
141.743463
51
168.2321973
0
ARC
8
front_labelLayer
10
2.2167121
20
3.0623268
40
0.1521954
50
98.2551898
51
139.6202845
0
ARC
8
front_labelLayer
10
2.2403591
20
2.9530815
40
0.2638169
50
89.669693
51
99.9312454
0
ARC
8
front_labelLayer
10
2.2404267
20
2.9374269
40
0.2794709
50
81.5637118
51
89.7020582
0
ARC
8
front_labelLayer
10
2.2207749
20
2.8003106
40
0.4179872
50
75.9741739
51
81.6565231
0
ARC
8
front_labelLayer
10
2.1870492
20
2.6604438
40
0.5618591
50
73.2961339
51
76.0942847
0
ARC
8
front_labelLayer
10
2.1955426
20
2.7282844
40
0.4214874
50
71.9614438
51
76.5917031
0
ARC
8
front_labelLayer
10
2.2282462
20
2.8670071
40
0.2789626
50
76.5185826
51
83.0218041
0
ARC
8
front_labelLayer
10
2.2396361
20
2.9585989
40
0.1866656
50
83.0763889
51
89.7927066
0
ARC
8
front_labelLayer
10
2.2392613
20
3.0282154
40
0.1170527
50
89.4859748
51
103.4195151
0
ARC
8
front_labelLayer
10
2.2287087
20
3.0687606
40
0.0751703
50
102.7679303
51
144.3378935
0
ARC
8
front_labelLayer
10
2.2499701
20
3.0550809
40
0.1004281
50
145.0688391
51
162.1797334
0
ARC
8
front_labelLayer
10
2.3228526
20
3.0305599
40
0.177321
50
161.8436439
51
171.7850369
0
ARC
8
front_labelLayer
10
2.4417701
20
3.0126991
40
0.2975711
50
171.6530121
51
178.4381108
0
ARC
8
front_labelLayer
10
2.5538478
20
3.0079252
40
0.4097409
50
178.1979812
51
180.0240175
0
LINE
8
front_labelLayer
10
2.724472
20
2.9748138
11
2.7124464
21
2.8942947
0
LINE
8
front_labelLayer
10
2.481346
20
2.7050224
11
2.481346
21
2.3975857
0
LINE
8
front_labelLayer
10
2.481346
20
2.3975857
11
2.3945526
21
2.3975857
0
LINE
8
front_labelLayer
10
2.3945526
20
2.3975857
11
2.3945526
21
2.970631
0
LINE
8
front_labelLayer
10
2.3945526
20
2.970631
11
2.4661833
21
2.970631
0
LINE
8
front_labelLayer
10
2.4661833
20
2.970631
11
2.4761175
21
2.8644921
0
LINE
8
front_labelLayer
10
2.4761175
20
2.8644921
11
2.4803003
21
2.8644921
0
ARC
8
front_labelLayer
10
2.6568693
20
2.5826548
40
0.3984342
50
84.992038
51
90.1281131
0
ARC
8
front_labelLayer
10
2.6664399
20
2.6898499
40
0.2908131
50
78.4892776
51
85.0268146
0
ARC
8
front_labelLayer
10
2.6292961
20
2.5209209
40
0.3825206
50
77.4451203
51
81.6357867
0
ARC
8
front_labelLayer
10
2.6459644
20
2.6358087
40
0.2664301
50
81.5882204
51
87.1917089
0
ARC
8
front_labelLayer
10
2.6495878
20
2.6986577
40
0.2034796
50
87.3437221
51
89.9672382
0
ARC
8
front_labelLayer
10
2.6487424
20
2.7517534
40
0.1503871
50
89.6335659
51
137.0881237
0
ARC
8
front_labelLayer
10
2.6856231
20
2.710275
40
0.2057076
50
135.6207221
51
138.8381203
0
ARC
8
front_labelLayer
10
2.6802414
20
2.7155286
40
0.1981986
50
138.9575177
51
174.5422743
0
ARC
8
front_labelLayer
10
2.7448078
20
2.7054283
40
0.263462
50
173.6911616
51
180.0882768
0
ARC
8
front_labelLayer
10
2.7356618
20
2.7206223
40
0.2931007
50
139.4137588
51
150.6032401
0
ARC
8
front_labelLayer
10
2.6831113
20
2.765653
40
0.223896
50
124.2320494
51
139.4159503
0
ARC
8
front_labelLayer
10
2.6550114
20
2.8080697
40
0.1730211
50
89.6797757
51
124.4404437
0
ARC
8
front_labelLayer
10
2.8779726
20
2.6816079
40
0.4483117
50
349.1760341
51
0.3863955
0
ARC
8
front_labelLayer
10
3.0288972
20
2.65152
40
0.2944245
50
330.2508309
51
349.4115154
0
ARC
8
front_labelLayer
10
3.0753618
20
2.6273685
40
0.2421086
50
318.1436486
51
329.756834
0
ARC
8
front_labelLayer
10
3.0837369
20
2.6206552
40
0.2313919
50
278.8958353
51
317.997993
0
ARC
8
front_labelLayer
10
3.0621334
20
2.7241563
40
0.337031
50
269.7504649
51
279.8034104
0
ARC
8
front_labelLayer
10
3.0586304
20
2.6658384
40
0.2787172
50
253.5437772
51
270.4183706
0
ARC
8
front_labelLayer
10
3.0493573
20
2.6299593
40
0.2416841
50
238.8118706
51
253.2425204
0
ARC
8
front_labelLayer
10
3.0463582
20
2.6239273
40
0.2349715
50
207.7946143
51
238.675819
0
ARC
8
front_labelLayer
10
3.0893406
20
2.6502481
40
0.2852867
50
205.6556144
51
208.4455648
0
ARC
8
front_labelLayer
10
3.1224258
20
2.6640344
40
0.3210848
50
188.9104514
51
205.3170233
0
ARC
8
front_labelLayer
10
3.2339686
20
2.6829233
40
0.4342093
50
179.7746399
51
189.0930853
0
ARC
8
front_labelLayer
10
3.2504031
20
2.6876846
40
0.4506509
50
169.2444077
51
180.3882079
0
ARC
8
front_labelLayer
10
3.0973667
20
2.7179329
40
0.2946601
50
150.7111032
51
169.4694486
0
ARC
8
front_labelLayer
10
3.0485119
20
2.7430222
40
0.2397853
50
138.175988
51
150.2287806
0
ARC
8
front_labelLayer
10
3.0403843
20
2.7492597
40
0.2295705
50
99.1757945
51
137.9834036
0
ARC
8
front_labelLayer
10
3.0627515
20
2.6439994
40
0.3370922
50
89.7324673
51
100.075949
0
ARC
8
front_labelLayer
10
3.0672235
20
2.6894557
40
0.2916467
50
73.522332
51
90.5693472
0
ARC
8
front_labelLayer
10
3.0843262
20
2.7515957
40
0.227211
50
41.1446059
51
73.2133842
0
ARC
8
front_labelLayer
10
3.051677
20
2.7235344
40
0.2702609
50
13.5014494
51
41.0703248
0
ARC
8
front_labelLayer
10
2.9255438
20
2.6905256
40
0.4006236
50
1.1277314
51
13.8801918
0
ARC
8
front_labelLayer
10
2.8167509
20
2.684696
40
0.5095233
50
359.9927177
51
1.542379
0
ARC
8
front_labelLayer
10
3.3292119
20
2.6823756
40
0.4395246
50
179.705962
51
187.915989
0
ARC
8
front_labelLayer
10
3.1680096
20
2.6592207
40
0.2766704
50
187.764127
51
200.0976718
0
ARC
8
front_labelLayer
10
3.0792001
20
2.6266814
40
0.1820876
50
200.0847319
51
216.913202
0
ARC
8
front_labelLayer
10
3.0467701
20
2.6035242
40
0.1422533
50
217.3008213
51
261.7100586
0
ARC
8
front_labelLayer
10
3.0618241
20
2.6753514
40
0.2155484
50
260.5030555
51
270.2479692
0
ARC
8
front_labelLayer
10
3.0646993
20
2.6613903
40
0.2015946
50
269.4479464
51
284.7256641
0
ARC
8
front_labelLayer
10
3.0806586
20
2.6022054
40
0.1402975
50
284.566054
51
322.6334722
0
ARC
8
front_labelLayer
10
3.0433464
20
2.6291626
40
0.1863167
50
323.0087897
51
342.63918
0
ARC
8
front_labelLayer
10
2.9366297
20
2.6640424
40
0.298583
50
342.3613542
51
353.7539795
0
ARC
8
front_labelLayer
10
2.7791432
20
2.6830241
40
0.4572031
50
353.5365743
51
0.2014012
0
ARC
8
front_labelLayer
10
2.8032959
20
2.6868415
40
0.4330534
50
359.7075641
51
7.897435
0
ARC
8
front_labelLayer
10
2.9618756
20
2.7095754
40
0.2728552
50
7.7442664
51
20.0687804
0
ARC
8
front_labelLayer
10
3.0502617
20
2.7420082
40
0.1787066
50
20.0258261
51
37.4348698
0
ARC
8
front_labelLayer
10
3.079587
20
2.7628159
40
0.1427787
50
37.9578968
51
80.4004521
0
ARC
8
front_labelLayer
10
3.0629252
20
2.6884749
40
0.2188944
50
79.3451926
51
90.3177521
0
ARC
8
front_labelLayer
10
3.059838
20
2.7008231
40
0.2065514
50
89.4803653
51
103.8807445
0
ARC
8
front_labelLayer
10
3.0424825
20
2.7669086
40
0.1382357
50
103.4684772
51
142.3118117
0
ARC
8
front_labelLayer
10
3.0762226
20
2.7431799
40
0.1794523
50
142.9024292
51
162.375028
0
ARC
8
front_labelLayer
10
3.1825442
20
2.7077482
40
0.2915154
50
162.0652984
51
173.1675038
0
ARC
8
front_labelLayer
10
3.3483247
20
2.6866049
40
0.4586358
50
173.0087658
51
180.2465721
0
LINE
8
front_labelLayer
10
3.957356
20
2.3975857
11
3.8705626
21
2.3975857
0
LINE
8
front_labelLayer
10
3.8705626
20
2.3975857
11
3.8705626
21
2.7682874
0
LINE
8
front_labelLayer
10
3.5652173
20
2.6982253
11
3.5652173
21
2.3975857
0
LINE
8
front_labelLayer
10
3.5652173
20
2.3975857
11
3.4784239
21
2.3975857
0
LINE
8
front_labelLayer
10
3.4784239
20
2.3975857
11
3.4784239
21
2.970631
0
LINE
8
front_labelLayer
10
3.4784239
20
2.970631
11
3.5490089
21
2.970631
0
LINE
8
front_labelLayer
10
3.5490089
20
2.970631
11
3.5631259
21
2.8922033
0
LINE
8
front_labelLayer
10
3.5631259
20
2.8922033
11
3.5673087
21
2.8922033
0
LINE
8
front_labelLayer
10
3.957356
20
2.7714246
11
3.957356
21
2.3975857
0
ARC
8
front_labelLayer
10
3.62521
20
2.7696933
40
0.2453566
50
359.6717001
51
8.6875115
0
ARC
8
front_labelLayer
10
3.7161561
20
2.7841158
40
0.1532764
50
8.4931285
51
22.6581053
0
ARC
8
front_labelLayer
10
3.7623514
20
2.8033128
40
0.1032512
50
22.7027615
51
42.3416973
0
ARC
8
front_labelLayer
10
3.7675474
20
2.8056513
40
0.0978516
50
43.3789256
51
71.5386865
0
ARC
8
front_labelLayer
10
3.74813
20
2.7513985
40
0.1554662
50
71.0823393
51
84.3695593
0
ARC
8
front_labelLayer
10
3.7394125
20
2.6773111
40
0.2300557
50
84.01924
51
90.1515421
0
ARC
8
front_labelLayer
10
3.7369394
20
2.6446921
40
0.2626805
50
89.5932968
51
100.3719017
0
ARC
8
front_labelLayer
10
3.7183751
20
2.7420871
40
0.1635364
50
100.1174301
51
118.1601483
0
ARC
8
front_labelLayer
10
3.6996691
20
2.7787696
40
0.1223704
50
118.5441288
51
139.1927209
0
ARC
8
front_labelLayer
10
3.7159816
20
2.7678243
40
0.1418904
50
140.1521232
51
160.3146608
0
ARC
8
front_labelLayer
10
3.8144824
20
2.7309298
40
0.2470677
50
159.9534161
51
171.3800721
0
ARC
8
front_labelLayer
10
3.9753766
20
2.7050657
40
0.4100234
50
171.1764313
51
178.321789
0
ARC
8
front_labelLayer
10
4.1215305
20
2.6984492
40
0.5563133
50
178.0814654
51
180.023053
0
ARC
8
front_labelLayer
10
3.7157812
20
2.7981713
40
0.1757444
50
116.944245
51
147.6527421
0
ARC
8
front_labelLayer
10
3.7342526
20
2.7672158
40
0.2117234
50
115.8082568
51
117.6044441
0
ARC
8
front_labelLayer
10
3.7434266
20
2.7457705
40
0.2350262
50
94.3226606
51
115.5455794
0
ARC
8
front_labelLayer
10
3.7490522
20
2.696895
40
0.2841931
50
89.9578989
51
94.7109113
0
ARC
8
front_labelLayer
10
3.7513783
20
2.6384311
40
0.3426635
50
80.5584023
51
90.3540222
0
ARC
8
front_labelLayer
10
3.7727918
20
2.7624617
40
0.2168017
50
65.1095285
51
80.7637796
0
ARC
8
front_labelLayer
10
3.7978239
20
2.8179093
40
0.15597
50
46.5585999
51
64.8780746
0
ARC
8
front_labelLayer
10
3.7998282
20
2.8236873
40
0.1504176
50
19.3848167
51
45.5995343
0
ARC
8
front_labelLayer
10
3.712822
20
2.7910389
40
0.2433356
50
6.9629755
51
19.8367146
0
ARC
8
front_labelLayer
10
3.5786129
20
2.7729917
40
0.3787463
50
359.7629302
51
7.2117143
0
LINE
8
front_labelLayer
10
4.3991655
20
2.4692164
11
4.3991655
21
2.4028142
0
LINE
8
front_labelLayer
10
4.1419226
20
2.5622839
11
4.1419226
21
2.9031831
0
LINE
8
front_labelLayer
10
4.1419226
20
2.9031831
11
4.0598349
21
2.9031831
0
LINE
8
front_labelLayer
10
4.0598349
20
2.9031831
11
4.0598349
21
2.9450113
0
LINE
8
front_labelLayer
10
4.0598349
20
2.9450113
11
4.1419226
21
2.981088
0
LINE
8
front_labelLayer
10
4.1419226
20
2.981088
11
4.1785222
21
3.1034353
0
LINE
8
front_labelLayer
10
4.1785222
20
3.1034353
11
4.2287159
21
3.1034353
0
LINE
8
front_labelLayer
10
4.2287159
20
3.1034353
11
4.2287159
21
2.970631
0
LINE
8
front_labelLayer
10
4.2287159
20
2.970631
11
4.3949827
21
2.970631
0
LINE
8
front_labelLayer
10
4.3949827
20
2.970631
11
4.3949827
21
2.9031831
0
LINE
8
front_labelLayer
10
4.3949827
20
2.9031831
11
4.2287159
21
2.9031831
0
LINE
8
front_labelLayer
10
4.2287159
20
2.9031831
11
4.2287159
21
2.5659439
0
ARC
8
front_labelLayer
10
4.3213318
20
2.7438165
40
0.2850578
50
269.8806144
51
278.3026036
0
ARC
8
front_labelLayer
10
4.3237907
20
2.7233938
40
0.2644946
50
278.4143499
51
279.0029384
0
ARC
8
front_labelLayer
10
4.2920948
20
2.9257652
40
0.4693328
50
278.9586585
51
280.5107124
0
ARC
8
front_labelLayer
10
4.3225384
20
2.7624113
40
0.3031663
50
280.4854191
51
282.6273974
0
ARC
8
front_labelLayer
10
4.3493017
20
2.6435329
40
0.1813127
50
282.5869567
51
285.5806082
0
ARC
8
front_labelLayer
10
4.3639733
20
2.5898529
40
0.1256649
50
285.7108581
51
286.263081
0
ARC
8
front_labelLayer
10
4.362668
20
2.4800103
40
0.0853891
50
287.9898955
51
295.3042901
0
ARC
8
front_labelLayer
10
4.342085
20
2.5422916
40
0.150983
50
283.3066092
51
288.1193882
0
ARC
8
front_labelLayer
10
4.3203425
20
2.632982
40
0.244243
50
280.0064406
51
283.3735388
0
ARC
8
front_labelLayer
10
4.3057383
20
2.7122143
40
0.3248083
50
279.1874487
51
280.1148638
0
ARC
8
front_labelLayer
10
4.2968632
20
2.7626749
40
0.3760393
50
275.5254154
51
279.2947856
0
ARC
8
front_labelLayer
10
4.3069148
20
2.6576406
40
0.2705251
50
270.89281
51
275.5484113
0
ARC
8
front_labelLayer
10
4.3081925
20
2.6095542
40
0.2224254
50
269.9992009
51
270.7567446
0
ARC
8
front_labelLayer
10
4.3046875
20
2.6137922
40
0.2266905
50
253.7845959
51
270.8851233
0
ARC
8
front_labelLayer
10
4.2778301
20
2.5222009
40
0.1312434
50
190.3818017
51
253.8772198
0
ARC
8
front_labelLayer
10
4.4147205
20
2.5592133
40
0.2728152
50
179.3551116
51
192.8477222
0
ARC
8
front_labelLayer
10
4.4034917
20
2.5648519
40
0.1747792
50
179.642019
51
189.7505912
0
ARC
8
front_labelLayer
10
4.3417873
20
2.5538462
40
0.1121031
50
189.5479628
51
205.7873666
0
ARC
8
front_labelLayer
10
4.3164267
20
2.54215
40
0.0841813
50
206.1285118
51
221.408657
0
ARC
8
front_labelLayer
10
4.313589
20
2.5399967
40
0.080629
50
221.5948455
51
262.3504452
0
ARC
8
front_labelLayer
10
4.3203516
20
2.5747661
40
0.1160076
50
261.3259846
51
270.1907574
0
LINE
8
left_outsideCutPath
10
6.656
20
5.479
11
6.656
21
4.43925
0
LINE
8
left_outsideCutPath
10
6.656
20
4.43925
11
6.479
21
4.43925
0
LINE
8
left_outsideCutPath
10
6.479
20
4.43925
11
6.479
21
3.34775
0
LINE
8
left_outsideCutPath
10
6.479
20
3.34775
11
6.656
21
3.34775
0
LINE
8
left_outsideCutPath
10
6.656
20
3.34775
11
6.656
21
2.25625
0
LINE
8
left_outsideCutPath
10
6.656
20
2.25625
11
6.479
21
2.25625
0
LINE
8
left_outsideCutPath
10
6.479
20
2.25625
11
6.479
21
1.16475
0
LINE
8
left_outsideCutPath
10
6.479
20
1.16475
11
6.656
21
1.16475
0
LINE
8
left_outsideCutPath
10
6.656
20
1.16475
11
6.656
21
0.125
0
LINE
8
left_outsideCutPath
10
6.656
20
0.125
11
8.01875
21
0.125
0
LINE
8
left_outsideCutPath
10
8.01875
20
0.125
11
8.01875
21
0.302
0
LINE
8
left_outsideCutPath
10
8.01875
20
0.302
11
9.11025
21
0.302
0
LINE
8
left_outsideCutPath
10
9.11025
20
0.302
11
9.11025
21
0.125
0
LINE
8
left_outsideCutPath
10
9.11025
20
0.125
11
10.20175
21
0.125
0
LINE
8
left_outsideCutPath
10
10.20175
20
0.125
11
10.20175
21
0.302
0
LINE
8
left_outsideCutPath
10
10.20175
20
0.302
11
11.29325
21
0.302
0
LINE
8
left_outsideCutPath
10
11.29325
20
0.302
11
11.29325
21
0.125
0
LINE
8
left_outsideCutPath
10
11.29325
20
0.125
11
12.38475
21
0.125
0
LINE
8
left_outsideCutPath
10
12.38475
20
0.125
11
12.656
21
0.125
0
LINE
8
left_outsideCutPath
10
12.656
20
0.125
11
12.656
21
1.16475
0
LINE
8
left_outsideCutPath
10
12.656
20
1.16475
11
12.833
21
1.16475
0
LINE
8
left_outsideCutPath
10
12.833
20
1.16475
11
12.833
21
2.25625
0
LINE
8
left_outsideCutPath
10
12.833
20
2.25625
11
12.656
21
2.25625
0
LINE
8
left_outsideCutPath
10
12.656
20
2.25625
11
12.656
21
3.34775
0
LINE
8
left_outsideCutPath
10
12.656
20
3.34775
11
12.833
21
3.34775
0
LINE
8
left_outsideCutPath
10
12.833
20
3.34775
11
12.833
21
4.43925
0
LINE
8
left_outsideCutPath
10
12.833
20
4.43925
11
12.656
21
4.43925
0
LINE
8
left_outsideCutPath
10
12.656
20
4.43925
11
12.656
21
5.479
0
LINE
8
left_outsideCutPath
10
12.656
20
5.479
11
11.29325
21
5.479
0
LINE
8
left_outsideCutPath
10
11.29325
20
5.479
11
11.29325
21
5.302
0
LINE
8
left_outsideCutPath
10
11.29325
20
5.302
11
10.20175
21
5.302
0
LINE
8
left_outsideCutPath
10
10.20175
20
5.302
11
10.20175
21
5.479
0
LINE
8
left_outsideCutPath
10
10.20175
20
5.479
11
9.11025
21
5.479
0
LINE
8
left_outsideCutPath
10
9.11025
20
5.479
11
9.11025
21
5.302
0
LINE
8
left_outsideCutPath
10
9.11025
20
5.302
11
8.01875
21
5.302
0
LINE
8
left_outsideCutPath
10
8.01875
20
5.302
11
8.01875
21
5.479
0
LINE
8
left_outsideCutPath
10
8.01875
20
5.479
11
6.92725
21
5.479
0
LINE
8
left_outsideCutPath
10
6.92725
20
5.479
11
6.656
21
5.479
0
LINE
8
left_labelLayer
10
8.9938085
20
3.2111427
11
8.9938085
21
2.3975857
0
LINE
8
left_labelLayer
10
8.9938085
20
2.3975857
11
8.9070151
21
2.3975857
0
LINE
8
left_labelLayer
10
8.9070151
20
2.3975857
11
8.9070151
21
3.2111427
0
LINE
8
left_labelLayer
10
8.9070151
20
3.2111427
11
8.9938085
21
3.2111427
0
LINE
8
left_labelLayer
10
9.6306417
20
2.7233222
11
9.6306417
21
2.6684228
0
LINE
8
left_labelLayer
10
9.6306417
20
2.6684228
11
9.2358888
21
2.6684228
0
LINE
8
left_labelLayer
10
9.6060677
20
2.5016331
11
9.6060677
21
2.4242511
0
LINE
8
left_labelLayer
10
9.2379802
20
2.7390078
11
9.5375741
21
2.7390078
0
ARC
8
left_labelLayer
10
9.417078
20
2.72439
40
0.3372735
50
256.0088391
51
270.4849279
0
ARC
8
left_labelLayer
10
9.3925181
20
2.6290431
40
0.2388185
50
223.5465474
51
256.1957424
0
ARC
8
left_labelLayer
10
9.4060685
20
2.638892
40
0.2554347
50
194.0878636
51
223.0537736
0
ARC
8
left_labelLayer
10
9.53021
20
2.6728399
40
0.3841152
50
181.3574811
51
194.4920409
0
ARC
8
left_labelLayer
10
9.6417114
20
2.6792988
40
0.4957529
50
179.9879923
51
181.7984686
0
ARC
8
left_labelLayer
10
9.6016976
20
2.682459
40
0.4557496
50
168.9538081
51
180.3842339
0
ARC
8
left_labelLayer
10
9.4528527
20
2.7127675
40
0.3038579
50
149.4071631
51
169.1854135
0
ARC
8
left_labelLayer
10
9.4113681
20
2.7346882
40
0.2570012
50
140.1053331
51
148.9070058
0
ARC
8
left_labelLayer
10
9.3859033
20
2.7581682
40
0.2224108
50
92.476363
51
140.5385986
0
ARC
8
left_labelLayer
10
9.3972562
20
2.674232
40
0.306856
50
89.9638259
51
93.9171627
0
ARC
8
left_labelLayer
10
9.3999658
20
2.7166747
40
0.2644253
50
74.2126789
51
90.5451509
0
ARC
8
left_labelLayer
10
9.4165268
20
2.7776947
40
0.2012023
50
41.2064731
51
74.0232459
0
ARC
8
left_labelLayer
10
9.3851613
20
2.7505506
40
0.2426819
50
11.5994382
51
41.1495194
0
ARC
8
left_labelLayer
10
9.2773965
20
2.725698
40
0.3532531
50
359.6146509
51
12.033622
0
ARC
8
left_labelLayer
10
9.584155
20
2.6753798
40
0.3483357
50
181.1443886
51
190.8009677
0
ARC
8
left_labelLayer
10
9.461278
20
2.651143
40
0.223095
50
190.6005323
51
206.0275869
0
ARC
8
left_labelLayer
10
9.4069085
20
2.62544
40
0.1629627
50
206.2952406
51
222.5556846
0
ARC
8
left_labelLayer
10
9.4020883
20
2.6229157
40
0.1577111
50
223.0644755
51
258.1400149
0
ARC
8
left_labelLayer
10
9.4212691
20
2.7018981
40
0.2389628
50
257.5312673
51
270.4317161
0
ARC
8
left_labelLayer
10
9.4214829
20
2.9213394
40
0.4584
50
270.1983252
51
292.2091379
0
ARC
8
left_labelLayer
10
9.3994577
20
2.9845928
40
0.5252978
50
291.8254288
51
293.1612219
0
ARC
8
left_labelLayer
10
9.3984344
20
2.9020821
40
0.5209933
50
287.9020505
51
293.4865274
0
ARC
8
left_labelLayer
10
9.4362148
20
2.7855099
40
0.3984517
50
281.9934311
51
287.8850914
0
ARC
8
left_labelLayer
10
9.445379
20
2.7525573
40
0.3643203
50
275.9050351
51
281.6605443
0
ARC
8
left_labelLayer
10
9.4270352
20
2.9237672
40
0.5365095
50
271.9118792
51
275.9725709
0
ARC
8
left_labelLayer
10
9.4203353
20
3.0944004
40
0.7072719
50
269.9673711
51
271.9931709
0
ARC
8
left_labelLayer
10
9.3947386
20
2.737333
40
0.1710868
50
89.4421894
51
106.20922
0
ARC
8
left_labelLayer
10
9.3844462
20
2.7748589
40
0.1321809
50
106.465795
51
137.9175615
0
ARC
8
left_labelLayer
10
9.4139577
20
2.7489439
40
0.1714529
50
138.0997053
51
160.5866193
0
ARC
8
left_labelLayer
10
9.4898056
20
2.7210399
40
0.2522658
50
160.3351574
51
172.5316483
0
ARC
8
left_labelLayer
10
9.5646416
20
2.7090564
40
0.3280316
50
172.1552876
51
174.7612393
0
ARC
8
left_labelLayer
10
9.241803
20
2.7406867
40
0.2957759
50
359.674764
51
8.9222298
0
ARC
8
left_labelLayer
10
9.3475002
20
2.757907
40
0.1886879
50
8.7342824
51
23.2772558
0
ARC
8
left_labelLayer
10
9.3976716
20
2.7789673
40
0.1342786
50
23.4823841
51
39.7074134
0
ARC
8
left_labelLayer
10
9.4099953
20
2.7881899
40
0.1189084
50
40.0823106
51
80.6242595
0
ARC
8
left_labelLayer
10
9.3973112
20
2.7300507
40
0.1783632
50
79.64661
51
90.2913535
0
LINE
8
left_labelLayer
10
10.0368974
20
2.970631
11
10.0368974
21
2.9031831
0
LINE
8
left_labelLayer
10
10.0368974
20
2.9031831
11
9.8910218
21
2.9031831
0
LINE
8
left_labelLayer
10
9.8910218
20
2.9031831
11
9.8910218
21
2.3975857
0
LINE
8
left_labelLayer
10
9.8910218
20
2.3975857
11
9.8042284
21
2.3975857
0
LINE
8
left_labelLayer
10
9.8042284
20
2.3975857
11
9.8042284
21
2.9031831
0
LINE
8
left_labelLayer
10
9.8042284
20
2.9031831
11
9.7017495
21
2.9031831
0
LINE
8
left_labelLayer
10
9.7017495
20
2.9031831
11
9.7017495
21
2.942397
0
LINE
8
left_labelLayer
10
9.7017495
20
2.942397
11
9.8042284
21
2.9737681
0
LINE
8
left_labelLayer
10
9.8042284
20
2.9737681
11
9.8042284
21
3.0056621
0
LINE
8
left_labelLayer
10
10.0954567
20
3.1985943
11
10.0729741
21
3.129055
0
LINE
8
left_labelLayer
10
9.8910218
20
3.0077535
11
9.8910218
21
2.970631
0
LINE
8
left_labelLayer
10
9.8910218
20
2.970631
11
10.0368974
21
2.970631
0
ARC
8
left_labelLayer
10
10.1559662
20
3.0097066
40
0.351761
50
167.5775189
51
180.6587968
0
ARC
8
left_labelLayer
10
9.9905601
20
3.0482702
40
0.1819435
50
141.743463
51
168.2321973
0
ARC
8
left_labelLayer
10
9.9636272
20
3.0623268
40
0.1521954
50
98.2551898
51
139.6202845
0
ARC
8
left_labelLayer
10
9.9872741
20
2.9530815
40
0.2638169
50
89.669693
51
99.9312454
0
ARC
8
left_labelLayer
10
9.9873418
20
2.9374269
40
0.2794709
50
81.5637118
51
89.7020582
0
ARC
8
left_labelLayer
10
9.9676899
20
2.8003106
40
0.4179872
50
75.9741739
51
81.6565231
0
ARC
8
left_labelLayer
10
9.9339643
20
2.6604438
40
0.5618591
50
73.2961339
51
76.0942847
0
ARC
8
left_labelLayer
10
9.9424576
20
2.7282844
40
0.4214874
50
71.9614438
51
76.5917031
0
ARC
8
left_labelLayer
10
9.9751613
20
2.8670071
40
0.2789626
50
76.5185826
51
83.0218041
0
ARC
8
left_labelLayer
10
9.9865511
20
2.9585989
40
0.1866656
50
83.0763889
51
89.7927066
0
ARC
8
left_labelLayer
10
9.9861763
20
3.0282154
40
0.1170527
50
89.4859748
51
103.4195151
0
ARC
8
left_labelLayer
10
9.9756237
20
3.0687606
40
0.0751703
50
102.7679303
51
144.3378935
0
ARC
8
left_labelLayer
10
9.9968851
20
3.0550809
40
0.1004281
50
145.0688391
51
162.1797334
0
ARC
8
left_labelLayer
10
10.0697677
20
3.0305599
40
0.177321
50
161.8436439
51
171.7850369
0
ARC
8
left_labelLayer
10
10.1886851
20
3.0126991
40
0.2975711
50
171.6530121
51
178.4381108
0
ARC
8
left_labelLayer
10
10.3007628
20
3.0079252
40
0.4097409
50
178.1979812
51
180.0240175
0
LINE
8
left_labelLayer
10
10.4049849
20
2.4692164
11
10.4049849
21
2.4028142
0
LINE
8
left_labelLayer
10
10.1477419
20
2.5622839
11
10.1477419
21
2.9031831
0
LINE
8
left_labelLayer
10
10.1477419
20
2.9031831
11
10.0656542
21
2.9031831
0
LINE
8
left_labelLayer
10
10.0656542
20
2.9031831
11
10.0656542
21
2.9450113
0
LINE
8
left_labelLayer
10
10.0656542
20
2.9450113
11
10.1477419
21
2.981088
0
LINE
8
left_labelLayer
10
10.1477419
20
2.981088
11
10.1843415
21
3.1034353
0
LINE
8
left_labelLayer
10
10.1843415
20
3.1034353
11
10.2345353
21
3.1034353
0
LINE
8
left_labelLayer
10
10.2345353
20
3.1034353
11
10.2345353
21
2.970631
0
LINE
8
left_labelLayer
10
10.2345353
20
2.970631
11
10.400802
21
2.970631
0
LINE
8
left_labelLayer
10
10.400802
20
2.970631
11
10.400802
21
2.9031831
0
LINE
8
left_labelLayer
10
10.400802
20
2.9031831
11
10.2345353
21
2.9031831
0
LINE
8
left_labelLayer
10
10.2345353
20
2.9031831
11
10.2345353
21
2.5659439
0
ARC
8
left_labelLayer
10
10.3271511
20
2.7438165
40
0.2850578
50
269.8806144
51
278.3026036
0
ARC
8
left_labelLayer
10
10.3296101
20
2.7233938
40
0.2644946
50
278.4143499
51
279.0029384
0
ARC
8
left_labelLayer
10
10.2979142
20
2.9257652
40
0.4693328
50
278.9586585
51
280.5107124
0
ARC
8
left_labelLayer
10
10.3283578
20
2.7624113
40
0.3031663
50
280.4854191
51
282.6273974
0
ARC
8
left_labelLayer
10
10.3551211
20
2.6435329
40
0.1813127
50
282.5869567
51
285.5806082
0
ARC
8
left_labelLayer
10
10.3697926
20
2.5898529
40
0.1256649
50
285.7108581
51
286.263081
0
ARC
8
left_labelLayer
10
10.3684874
20
2.4800103
40
0.0853891
50
287.9898955
51
295.3042901
0
ARC
8
left_labelLayer
10
10.3479043
20
2.5422916
40
0.150983
50
283.3066092
51
288.1193882
0
ARC
8
left_labelLayer
10
10.3261618
20
2.632982
40
0.244243
50
280.0064406
51
283.3735388
0
ARC
8
left_labelLayer
10
10.3115577
20
2.7122143
40
0.3248083
50
279.1874487
51
280.1148638
0
ARC
8
left_labelLayer
10
10.3026826
20
2.7626749
40
0.3760393
50
275.5254154
51
279.2947856
0
ARC
8
left_labelLayer
10
10.3127341
20
2.6576406
40
0.2705251
50
270.89281
51
275.5484113
0
ARC
8
left_labelLayer
10
10.3140118
20
2.6095542
40
0.2224254
50
269.9992009
51
270.7567446
0
ARC
8
left_labelLayer
10
10.3105068
20
2.6137922
40
0.2266905
50
253.7845959
51
270.8851233
0
ARC
8
left_labelLayer
10
10.2836495
20
2.5222009
40
0.1312434
50
190.3818017
51
253.8772198
0
ARC
8
left_labelLayer
10
10.4205398
20
2.5592133
40
0.2728152
50
179.3551116
51
192.8477222
0
ARC
8
left_labelLayer
10
10.4093111
20
2.5648519
40
0.1747792
50
179.642019
51
189.7505912
0
ARC
8
left_labelLayer
10
10.3476067
20
2.5538462
40
0.1121031
50
189.5479628
51
205.7873666
0
ARC
8
left_labelLayer
10
10.3222461
20
2.54215
40
0.0841813
50
206.1285118
51
221.408657
0
ARC
8
left_labelLayer
10
10.3194083
20
2.5399967
40
0.080629
50
221.5948455
51
262.3504452
0
ARC
8
left_labelLayer
10
10.3261709
20
2.5747661
40
0.1160076
50
261.3259846
51
270.1907574
0
LINE
8
top_outsideCutPath
10
13.135
20
6.302
11
13.135
21
4.93925
0
LINE
8
top_outsideCutPath
10
13.135
20
4.93925
11
12.958
21
4.93925
0
LINE
8
top_outsideCutPath
10
12.958
20
4.93925
11
12.958
21
3.84775
0
LINE
8
top_outsideCutPath
10
12.958
20
3.84775
11
13.135
21
3.84775
0
LINE
8
top_outsideCutPath
10
13.135
20
3.84775
11
13.135
21
2.75625
0
LINE
8
top_outsideCutPath
10
13.135
20
2.75625
11
12.958
21
2.75625
0
LINE
8
top_outsideCutPath
10
12.958
20
2.75625
11
12.958
21
1.66475
0
LINE
8
top_outsideCutPath
10
12.958
20
1.66475
11
13.135
21
1.66475
0
LINE
8
top_outsideCutPath
10
13.135
20
1.66475
11
13.135
21
0.57325
0
LINE
8
top_outsideCutPath
10
13.135
20
0.57325
11
13.135
21
0.302
0
LINE
8
top_outsideCutPath
10
13.135
20
0.302
11
14.49775
21
0.302
0
LINE
8
top_outsideCutPath
10
14.49775
20
0.302
11
14.49775
21
0.125
0
LINE
8
top_outsideCutPath
10
14.49775
20
0.125
11
15.58925
21
0.125
0
LINE
8
top_outsideCutPath
10
15.58925
20
0.125
11
15.58925
21
0.302
0
LINE
8
top_outsideCutPath
10
15.58925
20
0.302
11
16.68075
21
0.302
0
LINE
8
top_outsideCutPath
10
16.68075
20
0.302
11
16.68075
21
0.125
0
LINE
8
top_outsideCutPath
10
16.68075
20
0.125
11
17.77225
21
0.125
0
LINE
8
top_outsideCutPath
10
17.77225
20
0.125
11
17.77225
21
0.302
0
LINE
8
top_outsideCutPath
10
17.77225
20
0.302
11
18.86375
21
0.302
0
LINE
8
top_outsideCutPath
10
18.86375
20
0.302
11
19.135
21
0.302
0
LINE
8
top_outsideCutPath
10
19.135
20
0.302
11
19.135
21
1.66475
0
LINE
8
top_outsideCutPath
10
19.135
20
1.66475
11
19.312
21
1.66475
0
LINE
8
top_outsideCutPath
10
19.312
20
1.66475
11
19.312
21
2.75625
0
LINE
8
top_outsideCutPath
10
19.312
20
2.75625
11
19.135
21
2.75625
0
LINE
8
top_outsideCutPath
10
19.135
20
2.75625
11
19.135
21
3.84775
0
LINE
8
top_outsideCutPath
10
19.135
20
3.84775
11
19.312
21
3.84775
0
LINE
8
top_outsideCutPath
10
19.312
20
3.84775
11
19.312
21
4.93925
0
LINE
8
top_outsideCutPath
10
19.312
20
4.93925
11
19.135
21
4.93925
0
LINE
8
top_outsideCutPath
10
19.135
20
4.93925
11
19.135
21
6.03075
0
LINE
8
top_outsideCutPath
10
19.135
20
6.03075
11
19.135
21
6.302
0
LINE
8
top_outsideCutPath
10
19.135
20
6.302
11
17.77225
21
6.302
0
LINE
8
top_outsideCutPath
10
17.77225
20
6.302
11
17.77225
21
6.479
0
LINE
8
top_outsideCutPath
10
17.77225
20
6.479
11
16.68075
21
6.479
0
LINE
8
top_outsideCutPath
10
16.68075
20
6.479
11
16.68075
21
6.302
0
LINE
8
top_outsideCutPath
10
16.68075
20
6.302
11
15.58925
21
6.302
0
LINE
8
top_outsideCutPath
10
15.58925
20
6.302
11
15.58925
21
6.479
0
LINE
8
top_outsideCutPath
10
15.58925
20
6.479
11
14.49775
21
6.479
0
LINE
8
top_outsideCutPath
10
14.49775
20
6.479
11
14.49775
21
6.302
0
LINE
8
top_outsideCutPath
10
14.49775
20
6.302
11
13.40625
21
6.302
0
LINE
8
top_outsideCutPath
10
13.40625
20
6.302
11
13.135
21
6.302
0
LINE
8
top_labelLayer
10
15.5852248
20
3.1208117
11
15.5852248
21
3.0420072
0
LINE
8
top_labelLayer
10
15.279935
20
3.2312621
11
15.279935
21
3.6358332
0
LINE
8
top_labelLayer
10
15.279935
20
3.6358332
11
15.1825153
21
3.6358332
0
LINE
8
top_labelLayer
10
15.1825153
20
3.6358332
11
15.1825153
21
3.6854738
0
LINE
8
top_labelLayer
10
15.1825153
20
3.6854738
11
15.279935
21
3.7282889
0
LINE
8
top_labelLayer
10
15.279935
20
3.7282889
11
15.3233705
21
3.8734877
0
LINE
8
top_labelLayer
10
15.3233705
20
3.8734877
11
15.3829393
21
3.8734877
0
LINE
8
top_labelLayer
10
15.3829393
20
3.8734877
11
15.3829393
21
3.7158787
0
LINE
8
top_labelLayer
10
15.3829393
20
3.7158787
11
15.5802608
21
3.7158787
0
LINE
8
top_labelLayer
10
15.5802608
20
3.7158787
11
15.5802608
21
3.6358332
0
LINE
8
top_labelLayer
10
15.5802608
20
3.6358332
11
15.3829393
21
3.6358332
0
LINE
8
top_labelLayer
10
15.3829393
20
3.6358332
11
15.3829393
21
3.2356057
0
ARC
8
top_labelLayer
10
15.4928551
20
3.4466882
40
0.3382874
50
269.8803403
51
278.30264
0
ARC
8
top_labelLayer
10
15.4968869
20
3.4150796
40
0.3064284
50
278.4101199
51
279.013052
0
ARC
8
top_labelLayer
10
15.4581849
20
3.6624447
40
0.5568024
50
278.9587321
51
280.5113171
0
ARC
8
top_labelLayer
10
15.4943231
20
3.4686173
40
0.3596351
50
280.4839285
51
282.6268337
0
ARC
8
top_labelLayer
10
15.5260128
20
3.3278339
40
0.2153292
50
282.5874545
51
285.5789992
0
ARC
8
top_labelLayer
10
15.5428663
20
3.2660087
40
0.1512495
50
285.7191327
51
286.2636396
0
ARC
8
top_labelLayer
10
15.5419244
20
3.1335901
40
0.1013033
50
287.9879134
51
295.3047989
0
ARC
8
top_labelLayer
10
15.5174607
20
3.207612
40
0.1792625
50
283.307935
51
288.1185791
0
ARC
8
top_labelLayer
10
15.4916507
20
3.3152986
40
0.2899986
50
280.0074486
51
283.3729589
0
ARC
8
top_labelLayer
10
15.4742951
20
3.4095951
40
0.3858771
50
279.1856926
51
280.1121406
0
ARC
8
top_labelLayer
10
15.4637863
20
3.4693029
40
0.4464976
50
275.5263245
51
279.2938098
0
ARC
8
top_labelLayer
10
15.4757384
20
3.3444825
40
0.3211065
50
270.893637
51
275.5484611
0
ARC
8
top_labelLayer
10
15.4772419
20
3.2880944
40
0.2647024
50
270.0031472
51
270.7585927
0
ARC
8
top_labelLayer
10
15.4731006
20
3.2923942
40
0.2690343
50
253.784789
51
270.885105
0
ARC
8
top_labelLayer
10
15.4412265
20
3.1836923
40
0.1557562
50
190.3817255
51
253.8773285
0
ARC
8
top_labelLayer
10
15.6036857
20
3.2276187
40
0.3237713
50
179.3552303
51
192.8478122
0
ARC
8
top_labelLayer
10
15.5903386
20
3.2343073
40
0.2074034
50
179.6413201
51
189.7508949
0
ARC
8
top_labelLayer
10
15.5171229
20
3.2212463
40
0.1330341
50
189.5475666
51
205.7878453
0
ARC
8
top_labelLayer
10
15.4870385
20
3.2073724
40
0.0999119
50
206.1294341
51
221.408394
0
ARC
8
top_labelLayer
10
15.4836643
20
3.2048121
40
0.0956883
50
221.594894
51
262.3506088
0
ARC
8
top_labelLayer
10
15.491689
20
3.2460857
40
0.1376848
50
261.3271637
51
270.1912957
0
ARC
8
top_labelLayer
10
15.7760677
20
3.3728741
40
0.5320608
50
349.1762159
51
0.3862575
0
ARC
8
top_labelLayer
10
15.9552004
20
3.3371641
40
0.349412
50
330.2507037
51
349.4116071
0
ARC
8
top_labelLayer
10
16.0103294
20
3.3085092
40
0.2873407
50
318.1440733
51
329.756778
0
ARC
8
top_labelLayer
10
16.0202788
20
3.300536
40
0.2746107
50
278.8958772
51
317.9979965
0
ARC
8
top_labelLayer
10
15.9946406
20
3.4233824
40
0.3999942
50
269.7504583
51
279.8030535
0
ARC
8
top_labelLayer
10
15.9904833
20
3.3541563
40
0.3307731
50
253.5436658
51
270.4183511
0
ARC
8
top_labelLayer
10
15.9794727
20
3.3115664
40
0.2868127
50
238.811651
51
253.2429223
0
ARC
8
top_labelLayer
10
15.9759201
20
3.3044206
40
0.2788606
50
207.7947705
51
238.675752
0
ARC
8
top_labelLayer
10
16.0269117
20
3.3356514
40
0.3385539
50
205.65622
51
208.4463165
0
ARC
8
top_labelLayer
10
16.0661855
20
3.3520146
40
0.381047
50
188.9102728
51
205.3172283
0
ARC
8
top_labelLayer
10
16.198548
20
3.3744326
40
0.515287
50
179.7744622
51
189.0933127
0
ARC
8
top_labelLayer
10
16.2180743
20
3.3800844
40
0.5348215
50
169.2443833
51
180.3881886
0
ARC
8
top_labelLayer
10
16.0364608
20
3.4159809
40
0.3497021
50
150.71136
51
169.46936
0
ARC
8
top_labelLayer
10
15.9784657
20
3.4457643
40
0.2845605
50
138.1757215
51
150.2289799
0
ARC
8
top_labelLayer
10
15.9688303
20
3.4531587
40
0.2724508
50
99.1759619
51
137.9832753
0
ARC
8
top_labelLayer
10
15.9953742
20
3.3282403
40
0.4000529
50
89.7324862
51
100.0759713
0
ARC
8
top_labelLayer
10
16.00068
20
3.3821845
40
0.3461214
50
73.5222236
51
90.5691304
0
ARC
8
top_labelLayer
10
16.0209778
20
3.455932
40
0.2696495
50
41.1446436
51
73.2132972
0
ARC
8
top_labelLayer
10
15.9822311
20
3.4226303
40
0.3207393
50
13.5014661
51
41.0703333
0
ARC
8
top_labelLayer
10
15.8325316
20
3.3834559
40
0.4754581
50
1.1277656
51
13.8800221
0
ARC
8
top_labelLayer
10
15.7033008
20
3.3765391
40
0.6048157
50
359.9926
51
1.5419396
0
ARC
8
top_labelLayer
10
16.3116004
20
3.3737853
40
0.5216149
50
179.7061039
51
187.9161683
0
ARC
8
top_labelLayer
10
16.1202751
20
3.3462997
40
0.3283287
50
187.7637128
51
200.097906
0
ARC
8
top_labelLayer
10
16.0148872
20
3.3076828
40
0.2160884
50
200.084275
51
216.9134393
0
ARC
8
top_labelLayer
10
15.9764086
20
3.2802065
40
0.1688245
50
217.3010254
51
261.7098129
0
ARC
8
top_labelLayer
10
15.9942757
20
3.3654622
40
0.2558222
50
260.5030784
51
270.2474412
0
ARC
8
top_labelLayer
10
15.9976849
20
3.3488857
40
0.2392542
50
269.4481426
51
284.7254435
0
ARC
8
top_labelLayer
10
16.0166249
20
3.278641
40
0.1665029
50
284.5662427
51
322.6333766
0
ARC
8
top_labelLayer
10
15.9723432
20
3.3106332
40
0.2211179
50
323.0087687
51
342.6390102
0
ARC
8
top_labelLayer
10
15.8456735
20
3.3520311
40
0.3543738
50
342.3617565
51
353.7536533
0
ARC
8
top_labelLayer
10
15.6588201
20
3.3745536
40
0.5425724
50
353.5362789
51
0.2014199
0
ARC
8
top_labelLayer
10
15.6874483
20
3.3790854
40
0.5139475
50
359.7074208
51
7.8971339
0
ARC
8
top_labelLayer
10
15.8756627
20
3.4060653
40
0.3238121
50
7.7441886
51
20.0689268
0
ARC
8
top_labelLayer
10
15.9805543
20
3.444556
40
0.2120815
50
20.025718
51
37.4350228
0
ARC
8
top_labelLayer
10
16.0153543
20
3.4692491
40
0.1694459
50
37.9578469
51
80.4005203
0
ARC
8
top_labelLayer
10
15.995578
20
3.3810057
40
0.2597956
50
79.3454042
51
90.3172482
0
ARC
8
top_labelLayer
10
15.9919179
20
3.3956695
40
0.2451378
50
89.4807549
51
103.8806828
0
ARC
8
top_labelLayer
10
15.9713191
20
3.474106
40
0.1640546
50
103.4684455
51
142.3118432
0
ARC
8
top_labelLayer
10
16.0113654
20
3.4459436
40
0.2129739
50
142.9027929
51
162.3749936
0
ARC
8
top_labelLayer
10
16.1375377
20
3.4038967
40
0.3459599
50
162.0652852
51
173.1676076
0
ARC
8
top_labelLayer
10
16.3343028
20
3.3788001
40
0.5443155
50
173.0086498
51
180.2462251
0
LINE
8
top_labelLayer
10
16.5916885
20
3.1232937
11
16.5842424
21
3.1232937
0
LINE
8
top_labelLayer
10
16.5916885
20
3.0103613
11
16.5916885
21
2.7305123
0
LINE
8
top_labelLayer
10
16.5916885
20
2.7305123
11
16.4886842
21
2.7305123
0
LINE
8
top_labelLayer
10
16.4886842
20
2.7305123
11
16.4886842
21
3.7158787
0
LINE
8
top_labelLayer
10
16.4886842
20
3.7158787
11
16.5724528
21
3.7158787
0
LINE
8
top_labelLayer
10
16.5724528
20
3.7158787
11
16.5867244
21
3.6228025
0
LINE
8
top_labelLayer
10
16.5867244
20
3.6228025
11
16.5916885
21
3.6228025
0
LINE
8
top_labelLayer
10
16.5916885
20
3.3994197
11
16.5916885
21
3.3764609
0
ARC
8
top_labelLayer
10
16.803407
20
3.3358295
40
0.3124424
50
255.77576
51
270.3183924
0
ARC
8
top_labelLayer
10
16.7944876
20
3.2962009
40
0.2718392
50
245.9799968
51
255.5456991
0
ARC
8
top_labelLayer
10
16.777221
20
3.2560486
40
0.2281362
50
215.5850056
51
245.8361076
0
ARC
8
top_labelLayer
10
15.6170444
20
3.0010757
40
0.9748893
50
2.9505194
51
7.2018975
0
ARC
8
top_labelLayer
10
15.7749254
20
3.0099077
40
0.8167633
50
0.0318219
51
2.9018624
0
ARC
8
top_labelLayer
10
16.8185839
20
3.4634541
40
0.2772606
50
132.3564358
51
144.9196719
0
ARC
8
top_labelLayer
10
16.7761098
20
3.5097935
40
0.2144008
50
115.4004834
51
132.3120127
0
ARC
8
top_labelLayer
10
16.7926792
20
3.4694602
40
0.257953
50
97.7065642
51
114.8822648
0
ARC
8
top_labelLayer
10
16.8042506
20
3.394422
40
0.3338681
50
89.8468271
51
97.9475655
0
ARC
8
top_labelLayer
10
16.8083305
20
3.4125696
40
0.3157353
50
74.1922886
51
90.5784138
0
ARC
8
top_labelLayer
10
16.8301782
20
3.4919892
40
0.2333688
50
38.0523148
51
74.0417229
0
ARC
8
top_labelLayer
10
16.7699241
20
3.4458058
40
0.3092833
50
16.3354496
51
37.9092163
0
ARC
8
top_labelLayer
10
16.6116207
20
3.3970457
40
0.4749159
50
4.5767601
51
16.6089796
0
ARC
8
top_labelLayer
10
16.4167985
20
3.3776298
40
0.6706768
50
359.9001427
51
4.9020968
0
ARC
8
top_labelLayer
10
16.483542
20
3.3728979
40
0.6039428
50
350.6563509
51
0.3380285
0
ARC
8
top_labelLayer
10
16.6940925
20
3.3370863
40
0.3903732
50
335.830474
51
350.8254885
0
ARC
8
top_labelLayer
10
16.786699
20
3.2971165
40
0.2895234
50
321.3161842
51
335.5433973
0
ARC
8
top_labelLayer
10
16.8221106
20
3.2682615
40
0.2438463
50
274.0639196
51
321.4081437
0
ARC
8
top_labelLayer
10
16.8056173
20
3.3727273
40
0.3493355
50
269.9222334
51
275.5481387
0
ARC
8
top_labelLayer
10
16.7881284
20
3.3440183
40
0.2967866
50
89.5902179
51
100.3502874
0
ARC
8
top_labelLayer
10
16.7669648
20
3.4551943
40
0.1836192
50
100.0867076
51
118.1920233
0
ARC
8
top_labelLayer
10
16.745287
20
3.4974731
40
0.1361176
50
118.5572245
51
141.024199
0
ARC
8
top_labelLayer
10
16.7783249
20
3.4741703
40
0.1764791
50
141.8893303
51
160.5972767
0
ARC
8
top_labelLayer
10
16.8944183
20
3.4315708
40
0.3001355
50
160.2893138
51
171.2453429
0
ARC
8
top_labelLayer
10
17.0853163
20
3.40079
40
0.4934961
50
171.0866658
51
178.3246761
0
ARC
8
top_labelLayer
10
17.2473838
20
3.3930864
40
0.655726
50
178.0658502
51
179.4466038
0
ARC
8
top_labelLayer
10
17.2727245
20
3.3738015
40
0.6810412
50
179.7762643
51
185.7076513
0
ARC
8
top_labelLayer
10
17.0042173
20
3.3461345
40
0.4111145
50
185.5925194
51
194.2052277
0
ARC
8
top_labelLayer
10
16.8322193
20
3.3014947
40
0.2334239
50
193.9432478
51
208.0217306
0
ARC
8
top_labelLayer
10
16.7626224
20
3.2660904
40
0.1553594
50
208.5540077
51
217.5606449
0
ARC
8
top_labelLayer
10
16.7569491
20
3.2637293
40
0.1494313
50
218.1690856
51
253.804748
0
ARC
8
top_labelLayer
10
16.7846643
20
3.3491763
40
0.2392339
50
253.1381464
51
266.8485699
0
ARC
8
top_labelLayer
10
16.7924381
20
3.4408356
40
0.3311932
50
266.3774932
51
270.0510294
0
ARC
8
top_labelLayer
10
16.7950779
20
3.2831864
40
0.1735596
50
269.2258687
51
292.0430322
0
ARC
8
top_labelLayer
10
16.797419
20
3.269231
40
0.1597753
50
293.1431355
51
324.1351642
0
ARC
8
top_labelLayer
10
16.7629256
20
3.2984721
40
0.2048901
50
323.1596718
51
325.0167259
0
ARC
8
top_labelLayer
10
16.7253682
20
3.3217889
40
0.2490419
50
325.5755941
51
344.1504457
0
ARC
8
top_labelLayer
10
16.5965139
20
3.359881
40
0.3834036
50
343.9334286
51
355.1139826
0
ARC
8
top_labelLayer
10
16.4320484
20
3.3765748
40
0.5486997
50
354.8398742
51
0.1176956
0
ARC
8
top_labelLayer
10
16.4609641
20
3.380324
40
0.5197894
50
359.7109732
51
7.8611971
0
ARC
8
top_labelLayer
10
16.649961
20
3.4072667
40
0.3288849
50
7.7149124
51
19.8860036
0
ARC
8
top_labelLayer
10
16.7539034
20
3.4448117
40
0.2183694
50
19.8990483
51
35.898092
0
ARC
8
top_labelLayer
10
16.8003782
20
3.4800513
40
0.1600647
50
35.4342061
51
84.7850684
0
ARC
8
top_labelLayer
10
16.790615
20
3.4202516
40
0.2205461
50
83.6711501
51
90.0945666
0
LINE
8
back_outsideCutPath
10
0
20
10.958
11
0
21
9.91825
0
LINE
8
back_outsideCutPath
10
0
20
9.91825
11
0.177
21
9.91825
0
LINE
8
back_outsideCutPath
10
0.177
20
9.91825
11
0.177
21
8.82675
0
LINE
8
back_outsideCutPath
10
0.177
20
8.82675
11
0
21
8.82675
0
LINE
8
back_outsideCutPath
10
0
20
8.82675
11
0
21
7.73525
0
LINE
8
back_outsideCutPath
10
0
20
7.73525
11
0.177
21
7.73525
0
LINE
8
back_outsideCutPath
10
0.177
20
7.73525
11
0.177
21
6.64375
0
LINE
8
back_outsideCutPath
10
0.177
20
6.64375
11
0
21
6.64375
0
LINE
8
back_outsideCutPath
10
0
20
6.64375
11
0
21
5.604
0
LINE
8
back_outsideCutPath
10
0
20
5.604
11
1.53975
21
5.604
0
LINE
8
back_outsideCutPath
10
1.53975
20
5.604
11
1.53975
21
5.781
0
LINE
8
back_outsideCutPath
10
1.53975
20
5.781
11
2.63125
21
5.781
0
LINE
8
back_outsideCutPath
10
2.63125
20
5.781
11
2.63125
21
5.604
0
LINE
8
back_outsideCutPath
10
2.63125
20
5.604
11
3.72275
21
5.604
0
LINE
8
back_outsideCutPath
10
3.72275
20
5.604
11
3.72275
21
5.781
0
LINE
8
back_outsideCutPath
10
3.72275
20
5.781
11
4.81425
21
5.781
0
LINE
8
back_outsideCutPath
10
4.81425
20
5.781
11
4.81425
21
5.604
0
LINE
8
back_outsideCutPath
10
4.81425
20
5.604
11
5.90575
21
5.604
0
LINE
8
back_outsideCutPath
10
5.90575
20
5.604
11
6.354
21
5.604
0
LINE
8
back_outsideCutPath
10
6.354
20
5.604
11
6.354
21
6.64375
0
LINE
8
back_outsideCutPath
10
6.354
20
6.64375
11
6.177
21
6.64375
0
LINE
8
back_outsideCutPath
10
6.177
20
6.64375
11
6.177
21
7.73525
0
LINE
8
back_outsideCutPath
10
6.177
20
7.73525
11
6.354
21
7.73525
0
LINE
8
back_outsideCutPath
10
6.354
20
7.73525
11
6.354
21
8.82675
0
LINE
8
back_outsideCutPath
10
6.354
20
8.82675
11
6.177
21
8.82675
0
LINE
8
back_outsideCutPath
10
6.177
20
8.82675
11
6.177
21
9.91825
0
LINE
8
back_outsideCutPath
10
6.177
20
9.91825
11
6.354
21
9.91825
0
LINE
8
back_outsideCutPath
10
6.354
20
9.91825
11
6.354
21
10.958
0
LINE
8
back_outsideCutPath
10
6.354
20
10.958
11
4.81425
21
10.958
0
LINE
8
back_outsideCutPath
10
4.81425
20
10.958
11
4.81425
21
10.781
0
LINE
8
back_outsideCutPath
10
4.81425
20
10.781
11
3.72275
21
10.781
0
LINE
8
back_outsideCutPath
10
3.72275
20
10.781
11
3.72275
21
10.958
0
LINE
8
back_outsideCutPath
10
3.72275
20
10.958
11
2.63125
21
10.958
0
LINE
8
back_outsideCutPath
10
2.63125
20
10.958
11
2.63125
21
10.781
0
LINE
8
back_outsideCutPath
10
2.63125
20
10.781
11
1.53975
21
10.781
0
LINE
8
back_outsideCutPath
10
1.53975
20
10.781
11
1.53975
21
10.958
0
LINE
8
back_outsideCutPath
10
1.53975
20
10.958
11
0.44825
21
10.958
0
LINE
8
back_outsideCutPath
10
0.44825
20
10.958
11
0
21
10.958
0
LINE
8
back_labelLayer
10
2.1537795
20
7.953178
11
2.1475053
21
7.953178
0
LINE
8
back_labelLayer
10
2.1475053
20
7.953178
11
2.1292055
21
7.8794559
0
LINE
8
back_labelLayer
10
2.1292055
20
7.8794559
11
2.0669861
21
7.8794559
0
LINE
8
back_labelLayer
10
2.0669861
20
7.8794559
11
2.0669861
21
8.6930129
0
LINE
8
back_labelLayer
10
2.0669861
20
8.6930129
11
2.1537795
21
8.6930129
0
LINE
8
back_labelLayer
10
2.1537795
20
8.6930129
11
2.1537795
21
8.495375
0
LINE
8
back_labelLayer
10
2.1495967
20
8.3761649
11
2.1537795
21
8.3761649
0
ARC
8
back_labelLayer
10
2.3362447
20
8.1966596
40
0.2652657
50
74.2391568
51
90.5625067
0
ARC
8
back_labelLayer
10
2.3537849
20
8.2610035
40
0.1985775
50
38.5630873
51
74.0670714
0
ARC
8
back_labelLayer
10
2.3086414
20
8.2259024
40
0.2557584
50
16.4711091
51
38.4073704
0
ARC
8
back_labelLayer
10
2.178593
20
8.185125
40
0.392038
50
5.1340177
51
16.797185
0
ARC
8
back_labelLayer
10
2.0144077
20
8.1676864
40
0.5571315
50
359.8781395
51
5.4092702
0
ARC
8
back_labelLayer
10
2.0626419
20
8.1635001
40
0.5089048
50
350.6564431
51
0.3379053
0
ARC
8
back_labelLayer
10
2.2400698
20
8.1333221
40
0.3289329
50
335.8305263
51
350.8256785
0
ARC
8
back_labelLayer
10
2.3181021
20
8.0996412
40
0.2439538
50
321.3163012
51
335.5437595
0
ARC
8
back_labelLayer
10
2.3479374
20
8.0753304
40
0.2054694
50
274.0639414
51
321.4081897
0
ARC
8
back_labelLayer
10
2.3340402
20
8.1633684
40
0.2943697
50
269.9221829
51
275.5478387
0
ARC
8
back_labelLayer
10
2.332176
20
8.1322523
40
0.2632575
50
255.7753966
51
270.3187148
0
ARC
8
back_labelLayer
10
2.3246689
20
8.0988938
40
0.2290789
50
245.9805211
51
255.5452989
0
ARC
8
back_labelLayer
10
2.3101129
20
8.0650397
40
0.1922319
50
215.5849738
51
245.8360642
0
ARC
8
back_labelLayer
10
0.3439196
20
8.4938508
40
1.8098606
50
358.1124434
51
0.0482535
0
ARC
8
back_labelLayer
10
0.8476046
20
8.4769496
40
1.3058923
50
355.724074
51
358.1256752
0
ARC
8
back_labelLayer
10
1.0789002
20
8.4610261
40
1.0740541
50
355.4683277
51
355.6511976
0
ARC
8
back_labelLayer
10
2.3156451
20
8.2632919
40
0.1973342
50
95.1834497
51
145.1109594
0
ARC
8
back_labelLayer
10
2.3329919
20
8.1654464
40
0.2964668
50
89.8746634
51
96.8140386
0
ARC
8
back_labelLayer
10
2.319274
20
8.1453478
40
0.2438951
50
89.5729042
51
100.7322671
0
ARC
8
back_labelLayer
10
2.3012192
20
8.2365678
40
0.1509103
50
100.4467726
51
119.6700058
0
ARC
8
back_labelLayer
10
2.2844764
20
8.2678702
40
0.1154279
50
120.1401503
51
142.4249774
0
ARC
8
back_labelLayer
10
2.3121764
20
8.2495454
40
0.1485751
50
143.338187
51
161.2559387
0
ARC
8
back_labelLayer
10
2.4280164
20
8.2084198
40
0.2714921
50
160.892892
51
171.2334119
0
ARC
8
back_labelLayer
10
2.6213857
20
8.1772257
40
0.4673587
50
171.0668847
51
177.8456921
0
ARC
8
back_labelLayer
10
2.822229
20
8.1670024
40
0.6684497
50
177.6171626
51
180.0429403
0
ARC
8
back_labelLayer
10
2.7276825
20
8.1642624
40
0.5739074
50
179.7764727
51
185.7073502
0
ARC
8
back_labelLayer
10
2.5013942
20
8.1409497
40
0.3464231
50
185.5926711
51
194.2051225
0
ARC
8
back_labelLayer
10
2.3564472
20
8.1033303
40
0.1966788
50
193.9429338
51
208.0220337
0
ARC
8
back_labelLayer
10
2.2978011
20
8.0734941
40
0.1308961
50
208.5535102
51
217.56102
0
ARC
8
back_labelLayer
10
2.2930318
20
8.0715125
40
0.1259146
50
218.169218
51
253.8045884
0
ARC
8
back_labelLayer
10
2.3163852
20
8.1435155
40
0.2015875
50
253.13835
51
266.8484604
0
ARC
8
back_labelLayer
10
2.3229377
20
8.2208752
40
0.2792
50
266.3785967
51
270.0504167
0
ARC
8
back_labelLayer
10
2.3250348
20
8.1146867
40
0.1730214
50
269.3868972
51
285.863104
0
ARC
8
back_labelLayer
10
2.3378887
20
8.0682303
40
0.1248212
50
286.0164315
51
326.8495299
0
ARC
8
back_labelLayer
10
2.2758497
20
8.1093288
40
0.1992373
50
326.7103983
51
343.6663138
0
ARC
8
back_labelLayer
10
2.1597021
20
8.1448195
40
0.3206813
50
343.4172429
51
353.6368304
0
ARC
8
back_labelLayer
10
1.9842915
20
8.1656313
40
0.4973194
50
353.4936503
51
0.22072
0
ARC
8
back_labelLayer
10
1.9688497
20
8.1696245
40
0.512762
50
359.7678768
51
6.3095855
0
ARC
8
back_labelLayer
10
2.1619953
20
8.1917904
40
0.3183512
50
6.1647373
51
16.039878
0
ARC
8
back_labelLayer
10
2.2864127
20
8.2284577
40
0.1886481
50
15.7779076
51
32.0152482
0
ARC
8
back_labelLayer
10
2.3251974
20
8.250666
40
0.1439991
50
32.7039984
51
35.5244761
0
ARC
8
back_labelLayer
10
2.3394033
20
8.260764
40
0.12657
50
35.5407317
51
79.8012802
0
ARC
8
back_labelLayer
10
2.3224047
20
8.188503
40
0.2007376
50
78.6779806
51
90.3746802
0
LINE
8
back_labelLayer
10
3.1398775
20
7.8794559
11
3.0755668
21
7.8794559
0
LINE
8
back_labelLayer
10
3.0755668
20
7.8794559
11
3.0583127
21
7.9610208
0
LINE
8
back_labelLayer
10
3.0583127
20
7.9610208
11
3.0541299
21
7.9610208
0
LINE
8
back_labelLayer
10
2.9579252
20
8.2198323
11
3.0551756
21
8.2229694
0
LINE
8
back_labelLayer
10
3.0551756
20
8.2229694
11
3.0551756
21
8.2585233
0
LINE
8
back_labelLayer
10
2.7712672
20
8.3463624
11
2.7446018
21
8.4127645
0
LINE
8
back_labelLayer
10
3.1398775
20
8.2705489
11
3.1398775
21
7.8794559
0
LINE
8
back_labelLayer
10
3.0530842
20
8.1095106
11
3.0530842
21
8.1612729
0
LINE
8
back_labelLayer
10
3.0530842
20
8.1612729
11
2.9662908
21
8.1576129
0
ARC
8
back_labelLayer
10
2.7717749
20
8.1839501
40
0.3597524
50
314.7440241
51
321.7076502
0
ARC
8
back_labelLayer
10
2.8601493
20
8.0941478
40
0.2337597
50
304.8481034
51
314.8535165
0
ARC
8
back_labelLayer
10
2.902597
20
8.0337276
40
0.1599202
50
294.393254
51
304.7366085
0
ARC
8
back_labelLayer
10
2.8880934
20
8.0713106
40
0.2001517
50
281.297742
51
293.7311683
0
ARC
8
back_labelLayer
10
2.8689141
20
8.1642634
40
0.2950614
50
272.9335221
51
281.4137812
0
ARC
8
back_labelLayer
10
2.8625576
20
8.2596444
40
0.3906456
50
269.9539147
51
273.1486592
0
ARC
8
back_labelLayer
10
2.8603619
20
8.1353477
40
0.2663555
50
258.6718841
51
270.4047268
0
ARC
8
back_labelLayer
10
2.8418599
20
8.0468443
40
0.1759436
50
238.3271952
51
258.9184069
0
ARC
8
back_labelLayer
10
2.8291034
20
8.0235743
40
0.1494477
50
227.7681994
51
237.8051217
0
ARC
8
back_labelLayer
10
2.8251224
20
8.0180178
40
0.14266
50
192.0827762
51
227.4520894
0
ARC
8
back_labelLayer
10
2.8986806
20
8.0361492
40
0.2183964
50
179.5459369
51
192.6946255
0
ARC
8
back_labelLayer
10
2.8303451
20
8.0440559
40
0.1501811
50
115.4905024
51
182.3568616
0
ARC
8
back_labelLayer
10
2.9055589
20
7.9060961
40
0.3071986
50
101.3569207
51
117.0797114
0
ARC
8
back_labelLayer
10
2.9659603
20
7.6238352
40
0.595838
50
92.4696684
51
101.7065406
0
ARC
8
back_labelLayer
10
2.9832976
20
7.3730649
40
0.8471475
50
91.7162879
51
92.9103337
0
ARC
8
back_labelLayer
10
2.8058987
20
8.2598575
40
0.2492805
50
359.6933285
51
8.0039344
0
ARC
8
back_labelLayer
10
2.9001957
20
8.2735967
40
0.1539898
50
7.8270859
51
20.6044913
0
ARC
8
back_labelLayer
10
2.9535529
20
8.294009
40
0.096863
50
20.4096504
51
41.4479497
0
ARC
8
back_labelLayer
10
2.9614385
20
8.2983442
40
0.0881047
50
42.7293788
51
71.0380465
0
ARC
8
back_labelLayer
10
2.9428731
20
8.2478606
40
0.1418861
50
70.5721436
51
83.9923794
0
ARC
8
back_labelLayer
10
2.9340073
20
8.175837
40
0.2144459
50
83.6506223
51
90.1753042
0
ARC
8
back_labelLayer
10
2.9355629
20
8.1077066
40
0.2825839
50
90.4484498
51
103.7663673
0
ARC
8
back_labelLayer
10
2.9687865
20
7.9675973
40
0.4265757
50
103.6224262
51
112.4321907
0
ARC
8
back_labelLayer
10
3.0257331
20
7.8238025
40
0.5812243
50
112.2120539
51
115.9642397
0
ARC
8
back_labelLayer
10
2.9345331
20
8.06054
40
0.40017
50
106.3567215
51
118.3350472
0
ARC
8
back_labelLayer
10
2.9516171
20
8.0077398
40
0.455647
50
104.5161459
51
106.5482521
0
ARC
8
back_labelLayer
10
2.939081
20
8.0599592
40
0.4019536
50
90.0714552
51
104.6519849
0
ARC
8
back_labelLayer
10
2.940657
20
8.0953407
40
0.3665777
50
81.5680093
51
90.3246895
0
ARC
8
back_labelLayer
10
2.9618536
20
8.2334268
40
0.2268773
50
68.2275174
51
81.7496193
0
ARC
8
back_labelLayer
10
2.9913704
20
8.3068713
40
0.1477236
50
47.8686955
51
68.2930782
0
ARC
8
back_labelLayer
10
2.9961657
20
8.316443
40
0.137438
50
19.2329865
51
46.6743313
0
ARC
8
back_labelLayer
10
2.9163472
20
8.2867508
40
0.2225894
50
6.3379604
51
19.6813824
0
ARC
8
back_labelLayer
10
2.7983365
20
8.2717235
40
0.341543
50
359.8029559
51
6.6580328
0
ARC
8
back_labelLayer
10
2.8812533
20
8.1795864
40
0.2389633
50
269.5789987
51
282.0413701
0
ARC
8
back_labelLayer
10
2.898683
20
8.1022748
40
0.1597192
50
281.7121888
51
306.4593253
0
ARC
8
back_labelLayer
10
2.9064266
20
8.0895479
40
0.1448877
50
306.9872626
51
313.8560494
0
ARC
8
back_labelLayer
10
2.9054928
20
8.0892996
40
0.145358
50
314.1892597
51
347.426975
0
ARC
8
back_labelLayer
10
2.8326727
20
8.1075466
40
0.2204126
50
346.9180929
51
0.2823691
0
ARC
8
back_labelLayer
10
2.7325416
20
8.1095829
40
0.3205426
50
359.8301652
51
359.9870676
0
ARC
8
back_labelLayer
10
2.9869337
20
7.5206866
40
0.6372608
50
91.8563121
51
96.4478721
0
ARC
8
back_labelLayer
10
2.9582046
20
7.7693046
40
0.3869897
50
96.3549368
51
102.9948783
0
ARC
8
back_labelLayer
10
2.9191866
20
7.9350989
40
0.2166688
50
102.7998143
51
113.2432928
0
ARC
8
back_labelLayer
10
2.8870103
20
8.0120464
40
0.1332711
50
113.587907
51
121.6815248
0
ARC
8
back_labelLayer
10
2.8646799
20
8.0460499
40
0.092614
50
120.9735883
51
172.4178169
0
ARC
8
back_labelLayer
10
2.9083533
20
8.0373279
40
0.1370868
50
171.2127227
51
180.2063171
0
ARC
8
back_labelLayer
10
2.8952998
20
8.0358093
40
0.1240369
50
179.5265622
51
192.7787844
0
ARC
8
back_labelLayer
10
2.8533396
20
8.0256375
40
0.0808686
50
192.3261788
51
222.0582403
0
ARC
8
back_labelLayer
10
2.850177
20
8.0237272
40
0.077244
50
222.5777109
51
229.2572293
0
ARC
8
back_labelLayer
10
2.860767
20
8.0373508
40
0.0944816
50
229.7836774
51
254.272202
0
ARC
8
back_labelLayer
10
2.8748142
20
8.0841648
40
0.1433529
50
253.939872
51
266.4531139
0
ARC
8
back_labelLayer
10
2.8792937
20
8.1357473
40
0.1951179
50
266.0773185
51
270.0598481
0
LINE
8
back_labelLayer
10
3.7008973
20
8.4331557
11
3.6742318
21
8.3594336
0
LINE
8
back_labelLayer
10
3.6925316
20
7.9756606
11
3.6925316
21
7.8988014
0
ARC
8
back_labelLayer
10
3.5449334
20
8.1933652
40
0.3243782
50
256.4242322
51
270.4889871
0
ARC
8
back_labelLayer
10
3.5190119
20
8.0921996
40
0.2199594
50
221.7974883
51
256.8020769
0
ARC
8
back_labelLayer
10
3.5441147
20
8.1107477
40
0.2510529
50
196.0167101
51
221.1348801
0
ARC
8
back_labelLayer
10
3.6702754
20
8.1493081
40
0.3829623
50
183.5913785
51
196.3538678
0
ARC
8
back_labelLayer
10
3.811562
20
8.1617586
40
0.5247636
50
179.9388546
51
183.9818017
0
ARC
8
back_labelLayer
10
3.7656645
20
8.1654029
40
0.4788756
50
169.8976198
51
180.369023
0
ARC
8
back_labelLayer
10
3.598961
20
8.1962437
40
0.3093491
50
153.087365
51
170.1053625
0
ARC
8
back_labelLayer
10
3.5357116
20
8.2264669
40
0.2392756
50
138.6549481
51
152.6853895
0
ARC
8
back_labelLayer
10
3.5239067
20
8.2350702
40
0.2247338
50
101.4912243
51
138.3134792
0
ARC
8
back_labelLayer
10
3.5510111
20
8.1222633
40
0.3407038
50
89.5893253
51
102.1787101
0
ARC
8
back_labelLayer
10
3.5530935
20
8.071282
40
0.3916764
50
77.7701901
51
89.9473991
0
ARC
8
back_labelLayer
10
3.5456871
20
8.0304096
40
0.4331927
50
74.6796406
51
77.9579776
0
ARC
8
back_labelLayer
10
3.5857304
20
8.1754788
40
0.2826987
50
70.0942239
51
74.7385677
0
ARC
8
back_labelLayer
10
3.6238154
20
8.2798476
40
0.1715989
50
63.5032512
51
70.1859319
0
ARC
8
back_labelLayer
10
3.6387643
20
8.311638
40
0.1364808
50
62.9189725
51
63.1654838
0
ARC
8
back_labelLayer
10
3.5316687
20
8.0006601
40
0.3860605
50
68.3289791
51
74.8835374
0
ARC
8
back_labelLayer
10
3.5112602
20
7.9282996
40
0.4612401
50
74.7801891
51
77.4492468
0
ARC
8
back_labelLayer
10
3.5326613
20
8.0287221
40
0.3585678
50
77.3002303
51
81.7343006
0
ARC
8
back_labelLayer
10
3.5482671
20
8.1374376
40
0.2487382
50
81.6915495
51
87.5079716
0
ARC
8
back_labelLayer
10
3.5512773
20
8.1937502
40
0.1923489
50
87.6744319
51
89.9748587
0
ARC
8
back_labelLayer
10
3.5470595
20
8.1936242
40
0.192523
50
88.7195415
51
112.5665845
0
ARC
8
back_labelLayer
10
3.5333791
20
8.2388559
40
0.1455812
50
114.4265306
51
161.6632533
0
ARC
8
back_labelLayer
10
3.6692779
20
8.185665
40
0.2914161
50
160.1420524
51
175.1368943
0
ARC
8
back_labelLayer
10
3.856359
20
8.1646594
40
0.4796314
50
174.5312198
51
180.1547111
0
ARC
8
back_labelLayer
10
3.7970737
20
8.1611949
40
0.42035
50
179.7042966
51
188.0742749
0
ARC
8
back_labelLayer
10
3.645661
20
8.1390431
40
0.2673277
50
187.9317008
51
200.388688
0
ARC
8
back_labelLayer
10
3.563798
20
8.1087164
40
0.1800281
50
200.4183411
51
216.6391841
0
ARC
8
back_labelLayer
10
3.5294785
20
8.0841829
40
0.1378512
50
216.969646
51
261.3101304
0
ARC
8
back_labelLayer
10
3.5446227
20
8.1547872
40
0.2099771
50
260.1358967
51
270.2695065
0
ARC
8
back_labelLayer
10
3.5439238
20
8.3081421
40
0.3633336
50
270.2659602
51
286.2889873
0
ARC
8
back_labelLayer
10
3.5218483
20
8.3904762
40
0.4485586
50
286.0458052
51
292.3656053
0
ARC
8
back_labelLayer
10
3.580656
20
8.1188909
40
0.2468918
50
282.0347128
51
296.9450938
0
ARC
8
back_labelLayer
10
3.5552719
20
8.2332826
40
0.3640633
50
272.5977842
51
282.1881617
0
ARC
8
back_labelLayer
10
3.5479922
20
8.3447662
40
0.4757675
50
269.965019
51
272.8650447
0
LINE
8
back_labelLayer
10
3.9100379
20
8.1727756
11
3.9142207
21
8.1727756
0
LINE
8
back_labelLayer
10
3.9827143
20
8.2564319
11
4.1678037
21
8.4525012
0
LINE
8
back_labelLayer
10
4.1678037
20
8.4525012
11
4.2708055
21
8.4525012
0
LINE
8
back_labelLayer
10
4.2708055
20
8.4525012
11
4.0386594
21
8.2083295
0
LINE
8
back_labelLayer
10
4.0386594
20
8.2083295
11
4.2870139
21
7.8794559
0
LINE
8
back_labelLayer
10
4.2870139
20
7.8794559
11
4.1819207
21
7.8794559
0
LINE
8
back_labelLayer
10
4.1819207
20
7.8794559
11
3.9795771
21
8.150293
0
LINE
8
back_labelLayer
10
3.9795771
20
8.150293
11
3.9142207
21
8.093825
0
LINE
8
back_labelLayer
10
3.9142207
20
8.093825
11
3.9142207
21
7.8794559
0
LINE
8
back_labelLayer
10
3.9142207
20
7.8794559
11
3.828473
21
7.8794559
0
LINE
8
back_labelLayer
10
3.828473
20
7.8794559
11
3.828473
21
8.6930129
0
LINE
8
back_labelLayer
10
3.828473
20
8.6930129
11
3.9142207
21
8.6930129
0
LINE
8
back_labelLayer
10
3.9142207
20
8.6930129
11
3.9142207
21
8.2616604
0
ARC
8
back_labelLayer
10
4.3332877
20
7.8761538
40
0.5134215
50
142.3226364
51
144.7085722
0
ARC
8
back_labelLayer
10
4.6071188
20
7.6649507
40
0.8592396
50
140.4329098
51
142.3366182
0
ARC
8
back_labelLayer
10
4.9643613
20
7.3708742
40
1.321952
50
139.2804029
51
140.4701546
0
ARC
8
back_labelLayer
10
5.3752942
20
7.0174967
40
1.8639311
50
138.3415038
51
139.2879792
0
ARC
8
back_labelLayer
10
3.3352762
20
8.2627509
40
0.5789456
50
358.2748057
51
359.8920788
0
ARC
8
back_labelLayer
10
2.8873174
20
8.2752306
40
1.0270774
50
357.5035443
51
358.3312677
0
ARC
8
back_labelLayer
10
2.211539
20
8.3050661
40
1.7035141
50
356.6329724
51
357.4910335
0
ARC
8
back_labelLayer
10
1.0917115
20
8.370397
40
2.8252455
50
356.033084
51
356.6441568
0
ARC
8
back_labelLayer
10
-1.016565
20
8.5149312
40
4.9384702
50
356.0271531
51
356.0523852
0
LINE
8
right_outsideCutPath
10
6.656
20
10.958
11
6.656
21
9.91825
0
LINE
8
right_outsideCutPath
10
6.656
20
9.91825
11
6.479
21
9.91825
0
LINE
8
right_outsideCutPath
10
6.479
20
9.91825
11
6.479
21
8.82675
0
LINE
8
right_outsideCutPath
10
6.479
20
8.82675
11
6.656
21
8.82675
0
LINE
8
right_outsideCutPath
10
6.656
20
8.82675
11
6.656
21
7.73525
0
LINE
8
right_outsideCutPath
10
6.656
20
7.73525
11
6.479
21
7.73525
0
LINE
8
right_outsideCutPath
10
6.479
20
7.73525
11
6.479
21
6.64375
0
LINE
8
right_outsideCutPath
10
6.479
20
6.64375
11
6.656
21
6.64375
0
LINE
8
right_outsideCutPath
10
6.656
20
6.64375
11
6.656
21
5.604
0
LINE
8
right_outsideCutPath
10
6.656
20
5.604
11
8.01875
21
5.604
0
LINE
8
right_outsideCutPath
10
8.01875
20
5.604
11
8.01875
21
5.781
0
LINE
8
right_outsideCutPath
10
8.01875
20
5.781
11
9.11025
21
5.781
0
LINE
8
right_outsideCutPath
10
9.11025
20
5.781
11
9.11025
21
5.604
0
LINE
8
right_outsideCutPath
10
9.11025
20
5.604
11
10.20175
21
5.604
0
LINE
8
right_outsideCutPath
10
10.20175
20
5.604
11
10.20175
21
5.781
0
LINE
8
right_outsideCutPath
10
10.20175
20
5.781
11
11.29325
21
5.781
0
LINE
8
right_outsideCutPath
10
11.29325
20
5.781
11
11.29325
21
5.604
0
LINE
8
right_outsideCutPath
10
11.29325
20
5.604
11
12.38475
21
5.604
0
LINE
8
right_outsideCutPath
10
12.38475
20
5.604
11
12.656
21
5.604
0
LINE
8
right_outsideCutPath
10
12.656
20
5.604
11
12.656
21
6.64375
0
LINE
8
right_outsideCutPath
10
12.656
20
6.64375
11
12.833
21
6.64375
0
LINE
8
right_outsideCutPath
10
12.833
20
6.64375
11
12.833
21
7.73525
0
LINE
8
right_outsideCutPath
10
12.833
20
7.73525
11
12.656
21
7.73525
0
LINE
8
right_outsideCutPath
10
12.656
20
7.73525
11
12.656
21
8.82675
0
LINE
8
right_outsideCutPath
10
12.656
20
8.82675
11
12.833
21
8.82675
0
LINE
8
right_outsideCutPath
10
12.833
20
8.82675
11
12.833
21
9.91825
0
LINE
8
right_outsideCutPath
10
12.833
20
9.91825
11
12.656
21
9.91825
0
LINE
8
right_outsideCutPath
10
12.656
20
9.91825
11
12.656
21
10.958
0
LINE
8
right_outsideCutPath
10
12.656
20
10.958
11
11.29325
21
10.958
0
LINE
8
right_outsideCutPath
10
11.29325
20
10.958
11
11.29325
21
10.781
0
LINE
8
right_outsideCutPath
10
11.29325
20
10.781
11
10.20175
21
10.781
0
LINE
8
right_outsideCutPath
10
10.20175
20
10.781
11
10.20175
21
10.958
0
LINE
8
right_outsideCutPath
10
10.20175
20
10.958
11
9.11025
21
10.958
0
LINE
8
right_outsideCutPath
10
9.11025
20
10.958
11
9.11025
21
10.781
0
LINE
8
right_outsideCutPath
10
9.11025
20
10.781
11
8.01875
21
10.781
0
LINE
8
right_outsideCutPath
10
8.01875
20
10.781
11
8.01875
21
10.958
0
LINE
8
right_outsideCutPath
10
8.01875
20
10.958
11
6.92725
21
10.958
0
LINE
8
right_outsideCutPath
10
6.92725
20
10.958
11
6.656
21
10.958
0
LINE
8
right_labelLayer
10
8.8782583
20
8.5800743
11
8.8662327
21
8.4995551
0
LINE
8
right_labelLayer
10
8.6351323
20
8.3102828
11
8.6351323
21
8.0028461
0
LINE
8
right_labelLayer
10
8.6351323
20
8.0028461
11
8.548339
21
8.0028461
0
LINE
8
right_labelLayer
10
8.548339
20
8.0028461
11
8.548339
21
8.5758914
0
LINE
8
right_labelLayer
10
8.548339
20
8.5758914
11
8.6199696
21
8.5758914
0
LINE
8
right_labelLayer
10
8.6199696
20
8.5758914
11
8.6299038
21
8.4697526
0
LINE
8
right_labelLayer
10
8.6299038
20
8.4697526
11
8.6340866
21
8.4697526
0
ARC
8
right_labelLayer
10
8.8106556
20
8.1879153
40
0.3984342
50
84.992038
51
90.1281131
0
ARC
8
right_labelLayer
10
8.8202262
20
8.2951103
40
0.2908131
50
78.4892776
51
85.0268146
0
ARC
8
right_labelLayer
10
8.7830824
20
8.1261813
40
0.3825206
50
77.4451203
51
81.6357867
0
ARC
8
right_labelLayer
10
8.7997507
20
8.2410691
40
0.2664301
50
81.5882204
51
87.1917089
0
ARC
8
right_labelLayer
10
8.8033742
20
8.3039182
40
0.2034796
50
87.3437221
51
89.9672382
0
ARC
8
right_labelLayer
10
8.8025287
20
8.3570139
40
0.1503871
50
89.6335659
51
137.0881237
0
ARC
8
right_labelLayer
10
8.8394094
20
8.3155355
40
0.2057076
50
135.6207221
51
138.8381203
0
ARC
8
right_labelLayer
10
8.8340277
20
8.3207891
40
0.1981986
50
138.9575177
51
174.5422743
0
ARC
8
right_labelLayer
10
8.8985941
20
8.3106888
40
0.263462
50
173.6911616
51
180.0882768
0
ARC
8
right_labelLayer
10
8.8894481
20
8.3258828
40
0.2931007
50
139.4137588
51
150.6032401
0
ARC
8
right_labelLayer
10
8.8368976
20
8.3709134
40
0.223896
50
124.2320494
51
139.4159503
0
ARC
8
right_labelLayer
10
8.8087977
20
8.4133301
40
0.1730211
50
89.6797757
51
124.4404437
0
LINE
8
right_labelLayer
10
9.0722362
20
8.5758914
11
9.0722362
21
8.0028461
0
LINE
8
right_labelLayer
10
9.0722362
20
8.0028461
11
8.9854429
21
8.0028461
0
LINE
8
right_labelLayer
10
8.9854429
20
8.0028461
11
8.9854429
21
8.5758914
0
LINE
8
right_labelLayer
10
8.9854429
20
8.5758914
11
9.0722362
21
8.5758914
0
ARC
8
right_labelLayer
10
9.0743032
20
8.7317734
40
0.0961821
50
170.8456131
51
180.3544488
0
ARC
8
right_labelLayer
10
9.0383026
20
8.7377909
40
0.059683
50
155.9690989
51
171.0504758
0
ARC
8
right_labelLayer
10
9.0208542
20
8.7455308
40
0.0405951
50
133.7880846
51
155.9175983
0
ARC
8
right_labelLayer
10
9.0272935
20
8.7384117
40
0.050191
50
92.6450292
51
133.4709338
0
ARC
8
right_labelLayer
10
9.0293298
20
8.7223885
40
0.0663036
50
89.9718128
51
93.7638485
0
ARC
8
right_labelLayer
10
9.030155
20
8.7375609
40
0.0511372
50
46.3707252
51
90.8881116
0
ARC
8
right_labelLayer
10
9.0352436
20
8.7428146
40
0.0438235
50
17.7252096
51
46.4469365
0
ARC
8
right_labelLayer
10
9.0115086
20
8.7346409
40
0.0689225
50
4.9434957
51
18.1902901
0
ARC
8
right_labelLayer
10
8.981323
20
8.731378
40
0.0992791
50
359.8847674
51
5.3183692
0
ARC
8
right_labelLayer
10
8.9908038
20
8.7305695
40
0.0898001
50
349.8338287
51
0.3884924
0
ARC
8
right_labelLayer
10
9.023495
20
8.7244706
40
0.0565464
50
332.63191
51
350.0699557
0
ARC
8
right_labelLayer
10
9.036219
20
8.7181877
40
0.0423592
50
313.6156103
51
332.2671816
0
ARC
8
right_labelLayer
10
9.030088
20
8.7237705
40
0.0506338
50
269.1788945
51
314.2805616
0
ARC
8
right_labelLayer
10
9.0287871
20
8.7282737
40
0.0551349
50
250.500804
51
270.5978279
0
ARC
8
right_labelLayer
10
9.0271179
20
8.7220314
40
0.048696
50
225.1298053
51
249.9005173
0
ARC
8
right_labelLayer
10
9.024504
20
8.7191453
40
0.0448067
50
197.7924165
51
224.8949343
0
ARC
8
right_labelLayer
10
9.0489516
20
8.7275251
40
0.0706476
50
184.9926046
51
198.2049155
0
ARC
8
right_labelLayer
10
9.0806178
20
8.7309668
40
0.1024952
50
179.8817143
51
185.3686813
0
LINE
8
right_labelLayer
10
9.5271171
20
8.5758914
11
9.7252778
21
8.5758914
0
LINE
8
right_labelLayer
10
9.7252778
20
8.5758914
11
9.7252778
21
8.520992
0
LINE
8
right_labelLayer
10
9.7252778
20
8.520992
11
9.619139
21
8.5084436
0
LINE
8
right_labelLayer
10
9.4235925
20
8.0938223
11
9.5250257
21
8.0938223
0
LINE
8
right_labelLayer
10
9.4973145
20
8.0159174
11
9.3932671
21
8.0159174
0
ARC
8
right_labelLayer
10
9.5085435
20
8.4209186
40
0.1410389
50
29.4580733
51
38.3580323
0
ARC
8
right_labelLayer
10
9.4509104
20
8.388015
40
0.2074027
50
23.1845925
51
29.5427363
0
ARC
8
right_labelLayer
10
9.3958912
20
8.3636175
40
0.2675849
50
21.2505188
51
23.3487005
0
ARC
8
right_labelLayer
10
9.4893766
20
8.4007975
40
0.166982
50
6.8504313
51
20.9868193
0
ARC
8
right_labelLayer
10
9.4423549
20
8.3944216
40
0.2144299
50
359.8710846
51
7.0432951
0
ARC
8
right_labelLayer
10
9.4578249
20
8.3918702
40
0.1989701
50
342.5650079
51
0.5957609
0
ARC
8
right_labelLayer
10
9.4945203
20
8.3817376
40
0.1609301
50
310.6099516
51
342.0923159
0
ARC
8
right_labelLayer
10
9.4739439
20
8.4056726
40
0.1924938
50
284.9315113
51
310.6222514
0
ARC
8
right_labelLayer
10
9.448194
20
8.4958974
40
0.2863117
50
272.5333452
51
285.2582386
0
ARC
8
right_labelLayer
10
9.4415759
20
8.5863118
40
0.3769392
50
269.9686165
51
272.9308776
0
ARC
8
right_labelLayer
10
9.4407521
20
8.4883379
40
0.2789661
50
263.4839561
51
270.1268003
0
ARC
8
right_labelLayer
10
9.4362219
20
8.4452566
40
0.2356494
50
259.4972417
51
263.3896029
0
ARC
8
right_labelLayer
10
9.4643258
20
8.0764305
40
0.1544427
50
117.3934028
51
128.4096165
0
ARC
8
right_labelLayer
10
9.4245668
20
8.1257542
40
0.0910932
50
128.0882381
51
147.1401446
0
ARC
8
right_labelLayer
10
9.4031469
20
8.1401284
40
0.0653028
50
147.5368562
51
180.2589279
0
ARC
8
right_labelLayer
10
9.3828253
20
8.1392768
40
0.0449839
50
179.2913013
51
198.3575402
0
ARC
8
right_labelLayer
10
9.3744033
20
8.1370639
40
0.0362976
50
199.2291007
51
239.5687156
0
ARC
8
right_labelLayer
10
9.3813606
20
8.1466638
40
0.0481123
50
238.2152266
51
239.8428563
0
ARC
8
right_labelLayer
10
9.3869601
20
8.1581801
40
0.0608901
50
240.731024
51
254.5019245
0
ARC
8
right_labelLayer
10
9.4035777
20
8.2154528
40
0.1205227
50
254.1645082
51
262.211908
0
ARC
8
right_labelLayer
10
9.416742
20
8.3074273
40
0.2134336
50
262.0563602
51
267.2076717
0
ARC
8
right_labelLayer
10
9.4230951
20
8.4239976
40
0.3301757
50
267.0919824
51
270.0863192
0
ARC
8
right_labelLayer
10
9.5269231
20
7.7385587
40
0.3552686
50
81.57413
51
90.3060022
0
ARC
8
right_labelLayer
10
9.5464131
20
7.8656513
40
0.2266931
50
68.3668205
51
81.740135
0
ARC
8
right_labelLayer
10
9.5718652
20
7.9306928
40
0.1568501
50
52.1879969
51
68.2502717
0
ARC
8
right_labelLayer
10
9.589674
20
7.9546897
40
0.1269754
50
8.6201649
51
51.8981213
0
ARC
8
right_labelLayer
10
9.5272478
20
7.9414808
40
0.1907122
50
359.7434196
51
9.7327202
0
ARC
8
right_labelLayer
10
9.5300485
20
7.9382643
40
0.1879242
50
340.5270367
51
0.7203169
0
ARC
8
right_labelLayer
10
9.5576587
20
7.9313905
40
0.159625
50
302.9904224
51
339.5493782
0
ARC
8
right_labelLayer
10
9.5278183
20
7.9695033
40
0.2078846
50
303.1912141
51
304.1691999
0
ARC
8
right_labelLayer
10
9.5016612
20
8.0149925
40
0.2602889
50
286.2544329
51
302.5280054
0
ARC
8
right_labelLayer
10
9.4525094
20
8.1771152
40
0.4296927
50
276.4937569
51
286.4955747
0
ARC
8
right_labelLayer
10
9.4218359
20
8.4334989
40
0.687902
50
269.7543668
51
276.6171065
0
ARC
8
right_labelLayer
10
9.4165961
20
8.2318742
40
0.4862764
50
262.5634224
51
270.2699033
0
ARC
8
right_labelLayer
10
9.3927823
20
8.0553581
40
0.3081639
50
251.2103308
51
262.7060815
0
ARC
8
right_labelLayer
10
9.3584477
20
7.9545823
40
0.2016998
50
235.9666962
51
251.2232244
0
ARC
8
right_labelLayer
10
9.3220642
20
7.9026786
40
0.1383279
50
208.9033792
51
236.4232827
0
ARC
8
right_labelLayer
10
9.3254059
20
7.9012797
40
0.140606
50
182.2079341
51
207.746081
0
ARC
8
right_labelLayer
10
9.3680359
20
7.9055305
40
0.1833866
50
179.9796189
51
183.021936
0
ARC
8
right_labelLayer
10
9.3173403
20
7.9079241
40
0.1327114
50
138.3916885
51
181.0052971
0
ARC
8
right_labelLayer
10
9.331353
20
7.8953314
40
0.1515507
50
113.8118952
51
138.349822
0
ARC
8
right_labelLayer
10
9.3579394
20
7.8379219
40
0.2148102
50
102.2872189
51
114.1173066
0
ARC
8
right_labelLayer
10
9.3495839
20
8.1297773
40
0.0900783
50
216.5858923
51
245.497242
0
ARC
8
right_labelLayer
10
9.3625265
20
8.1407511
40
0.107017
50
215.4647303
51
217.1734249
0
ARC
8
right_labelLayer
10
9.3410007
20
8.1252048
40
0.0804651
50
182.1766583
51
215.3417719
0
ARC
8
right_labelLayer
10
9.3602562
20
8.1272603
40
0.0997934
50
179.9859436
51
182.9360879
0
ARC
8
right_labelLayer
10
9.3597163
20
8.1281233
40
0.0992571
50
161.7230008
51
180.4839987
0
ARC
8
right_labelLayer
10
9.348793
20
8.1311048
40
0.0879518
50
144.4955986
51
161.3357239
0
ARC
8
right_labelLayer
10
9.377884
20
8.1094258
40
0.1242266
50
132.7254556
51
144.1481658
0
ARC
8
right_labelLayer
10
9.4244972
20
8.0596514
40
0.1924185
50
125.2206408
51
132.8658423
0
ARC
8
right_labelLayer
10
9.4713731
20
7.9945607
40
0.2726293
50
121.2348057
51
125.3793354
0
ARC
8
right_labelLayer
10
9.3882925
20
8.3682214
40
0.1521572
50
215.1642024
51
247.474579
0
ARC
8
right_labelLayer
10
9.4168009
20
8.3912157
40
0.188721
50
212.4727949
51
215.8866001
0
ARC
8
right_labelLayer
10
9.4092252
20
8.3857986
40
0.179422
50
183.0160532
51
212.3122556
0
ARC
8
right_labelLayer
10
9.4485348
20
8.3901841
40
0.2189202
50
179.9751327
51
183.6209259
0
ARC
8
right_labelLayer
10
9.4803697
20
8.3923971
40
0.2507641
50
166.8197477
51
180.4839211
0
ARC
8
right_labelLayer
10
9.3971794
20
8.4134001
40
0.1649828
50
132.3288656
51
167.3341069
0
ARC
8
right_labelLayer
10
9.4083081
20
8.3974033
40
0.1843205
50
106.2188721
51
131.5378335
0
ARC
8
right_labelLayer
10
9.4364673
20
8.3062234
40
0.2797409
50
93.6328762
51
106.5407064
0
ARC
8
right_labelLayer
10
9.4456632
20
8.2029851
40
0.3833637
50
89.9384453
51
94.0268396
0
ARC
8
right_labelLayer
10
9.4471505
20
8.2536894
40
0.3326608
50
82.5849543
51
90.1852141
0
ARC
8
right_labelLayer
10
9.4573184
20
8.3323359
40
0.2533598
50
74.0086284
51
82.5698188
0
ARC
8
right_labelLayer
10
9.355464
20
7.9054554
40
0.0871665
50
179.2203879
51
200.9359444
0
ARC
8
right_labelLayer
10
9.345101
20
7.9030561
40
0.0766443
50
202.0289181
51
236.1458205
0
ARC
8
right_labelLayer
10
9.3607856
20
7.9229871
40
0.101952
50
235.065548
51
238.5024116
0
ARC
8
right_labelLayer
10
9.3788885
20
7.955338
40
0.1390022
50
239.1068724
51
254.4859878
0
ARC
8
right_labelLayer
10
9.4031028
20
8.038827
40
0.2259282
50
254.2321566
51
263.4935877
0
ARC
8
right_labelLayer
10
9.4183167
20
8.167716
40
0.3557112
50
263.4112823
51
270.1452483
0
LINE
8
right_labelLayer
10
9.4192185
20
7.8120059
11
9.4199325
21
7.8120053
0
ARC
8
right_labelLayer
10
9.4220125
20
8.3954947
40
0.5834931
50
269.7957531
51
275.3988947
0
ARC
8
right_labelLayer
10
9.4438481
20
8.1712991
40
0.3582381
50
275.2958373
51
283.3515045
0
ARC
8
right_labelLayer
10
9.4794271
20
8.0247534
40
0.2074387
50
283.1370593
51
295.8571195
0
ARC
8
right_labelLayer
10
9.5057872
20
7.9672043
40
0.1441613
50
296.4047189
51
301.8005947
0
ARC
8
right_labelLayer
10
9.5161275
20
7.95295
40
0.1266042
50
301.2228593
51
318.6239882
0
ARC
8
right_labelLayer
10
9.5394382
20
7.9314179
40
0.0948824
50
319.0763546
51
1.1407372
0
ARC
8
right_labelLayer
10
9.5168714
20
7.9342362
40
0.1174339
50
359.5465947
51
10.9904862
0
ARC
8
right_labelLayer
10
9.5622349
20
7.9434628
40
0.0711448
50
10.661093
51
30.9362995
0
ARC
8
right_labelLayer
10
9.5766154
20
7.9514434
40
0.0547101
50
31.5097178
51
58.0770935
0
ARC
8
right_labelLayer
10
9.563139
20
7.9273119
40
0.0823284
50
58.9970999
51
73.8590127
0
ARC
8
right_labelLayer
10
9.5358933
20
7.83812
40
0.1755843
50
73.4099389
51
81.590699
0
ARC
8
right_labelLayer
10
9.512808
20
7.6887355
40
0.3267403
50
81.4170034
51
86.5754573
0
ARC
8
right_labelLayer
10
9.4986602
20
7.463652
40
0.5522673
50
86.5051831
51
90.1396101
0
ARC
8
right_labelLayer
10
9.3920269
20
7.8163928
40
0.1995285
50
89.643859
51
100.0204315
0
ARC
8
right_labelLayer
10
9.3794853
20
7.8846262
40
0.1301545
50
99.8101322
51
116.8231497
0
ARC
8
right_labelLayer
10
9.3672768
20
7.9103751
40
0.1016698
50
117.2311645
51
130.5017265
0
ARC
8
right_labelLayer
10
9.3609991
20
7.9184443
40
0.0914581
50
130.7944518
51
169.0414639
0
ARC
8
right_labelLayer
10
9.4071801
20
7.9075675
40
0.1388777
50
168.2577651
51
180.3820629
0
ARC
8
right_labelLayer
10
9.4847786
20
8.3910755
40
0.1694214
50
179.5620318
51
191.6529622
0
ARC
8
right_labelLayer
10
9.4258682
20
8.3783472
40
0.1091558
50
191.3553131
51
213.3664022
0
ARC
8
right_labelLayer
10
9.4117294
20
8.3701838
40
0.0928627
50
213.9577248
51
227.7966045
0
ARC
8
right_labelLayer
10
9.4240325
20
8.3851076
40
0.1121862
50
228.2621642
51
254.734051
0
ARC
8
right_labelLayer
10
9.4397571
20
8.4390147
40
0.1683343
50
254.4018572
51
267.4344766
0
ARC
8
right_labelLayer
10
9.4438577
20
8.4939309
40
0.2233849
50
267.0142544
51
270.0323158
0
ARC
8
right_labelLayer
10
9.4465384
20
8.4596154
40
0.1890866
50
269.2258695
51
284.3772734
0
ARC
8
right_labelLayer
10
9.4723108
20
8.3698231
40
0.0957442
50
282.779654
51
346.4829479
0
ARC
8
right_labelLayer
10
9.3952606
20
8.3916485
40
0.1757909
50
345.436145
51
0.7465906
0
ARC
8
right_labelLayer
10
9.3844261
20
8.3966072
40
0.1866296
50
359.1808462
51
15.0431305
0
ARC
8
right_labelLayer
10
9.4689931
20
8.4212762
40
0.0985759
50
13.953519
51
77.6674605
0
ARC
8
right_labelLayer
10
9.4447299
20
8.3343296
40
0.1887682
50
76.1093544
51
90.7026106
0
ARC
8
right_labelLayer
10
9.4410991
20
8.3409658
40
0.1821224
50
89.5859702
51
101.3330931
0
ARC
8
right_labelLayer
10
9.4280847
20
8.4030451
40
0.1186973
50
101.0621775
51
121.9739405
0
ARC
8
right_labelLayer
10
9.4189386
20
8.4194989
40
0.0999012
50
122.5212519
51
134.996697
0
ARC
8
right_labelLayer
10
9.4227041
20
8.4172435
40
0.104164
50
135.5841706
51
163.001713
0
ARC
8
right_labelLayer
10
9.477711
20
8.3992139
40
0.162043
50
162.5911726
51
175.7342136
0
ARC
8
right_labelLayer
10
9.5436623
20
8.3927172
40
0.2283002
50
175.3394356
51
180.0869936
0
LINE
8
right_labelLayer
10
10.3218515
20
8.0028461
11
10.2350581
21
8.0028461
0
LINE
8
right_labelLayer
10
10.2350581
20
8.0028461
11
10.2350581
21
8.3735479
0
LINE
8
right_labelLayer
10
9.9297128
20
8.3024401
11
9.9297128
21
8.0028461
0
LINE
8
right_labelLayer
10
9.9297128
20
8.0028461
11
9.8429194
21
8.0028461
0
LINE
8
right_labelLayer
10
9.8429194
20
8.0028461
11
9.8429194
21
8.8164032
0
LINE
8
right_labelLayer
10
9.8429194
20
8.8164032
11
9.9297128
21
8.8164032
0
LINE
8
right_labelLayer
10
9.9297128
20
8.8164032
11
9.9297128
21
8.5701401
0
LINE
8
right_labelLayer
10
9.92553
20
8.496418
11
9.9307585
21
8.496418
0
LINE
8
right_labelLayer
10
10.3218515
20
8.376685
11
10.3218515
21
8.0028461
0
ARC
8
right_labelLayer
10
9.9897055
20
8.3749538
40
0.2453566
50
359.6717001
51
8.6875115
0
ARC
8
right_labelLayer
10
10.0806516
20
8.3893762
40
0.1532764
50
8.4931285
51
22.6581053
0
ARC
8
right_labelLayer
10
10.1268469
20
8.4085732
40
0.1032512
50
22.7027615
51
42.3416973
0
ARC
8
right_labelLayer
10
10.1320429
20
8.4109117
40
0.0978516
50
43.3789256
51
71.5386865
0
ARC
8
right_labelLayer
10
10.1126255
20
8.3566589
40
0.1554662
50
71.0823393
51
84.3695593
0
ARC
8
right_labelLayer
10
10.103908
20
8.2825715
40
0.2300557
50
84.01924
51
90.1515421
0
ARC
8
right_labelLayer
10
10.10143
20
8.2499814
40
0.2626516
50
89.5921746
51
100.3596456
0
ARC
8
right_labelLayer
10
10.0828303
20
8.3477207
40
0.1631627
50
100.1066799
51
118.0848766
0
ARC
8
right_labelLayer
10
10.0639145
20
8.3848367
40
0.1215144
50
118.4549833
51
139.6707191
0
ARC
8
right_labelLayer
10
10.0829051
20
8.3718557
40
0.1444125
50
140.6207429
51
160.504877
0
ARC
8
right_labelLayer
10
10.1830086
20
8.3347985
40
0.2511487
50
160.1568595
51
171.5312277
0
ARC
8
right_labelLayer
10
10.3449267
20
8.3091422
40
0.4150826
50
171.3199133
51
178.3410186
0
ARC
8
right_labelLayer
10
10.4901318
20
8.3026588
40
0.5604191
50
178.1082367
51
180.0223632
0
ARC
8
right_labelLayer
10
9.1491987
20
8.5692045
40
0.7805147
50
357.8670816
51
0.0686814
0
ARC
8
right_labelLayer
10
9.4142073
20
8.5590863
40
0.5153131
50
354.9830246
51
357.8946664
0
ARC
8
right_labelLayer
10
9.5892422
20
8.5438515
40
0.3396164
50
351.9713739
51
354.9610018
0
ARC
8
right_labelLayer
10
10.0777707
20
8.4044571
40
0.1734053
50
119.8314567
51
147.9726908
0
ARC
8
right_labelLayer
10
10.0987928
20
8.3721524
40
0.211898
50
116.6657181
51
120.4172919
0
ARC
8
right_labelLayer
10
10.1026903
20
8.3618998
40
0.2228121
50
96.6652615
51
116.3781563
0
ARC
8
right_labelLayer
10
10.1111377
20
8.3036306
40
0.2816728
50
89.8927159
51
96.9962344
0
ARC
8
right_labelLayer
10
10.1138401
20
8.2331868
40
0.3521227
50
80.6862001
51
90.3539015
0
ARC
8
right_labelLayer
10
10.1357665
20
8.3621453
40
0.2213169
50
65.6022947
51
80.8846287
0
ARC
8
right_labelLayer
10
10.1620946
20
8.4214419
40
0.1564409
50
46.7401345
51
65.4131462
0
ARC
8
right_labelLayer
10
10.1638822
20
8.4270908
40
0.1511239
50
19.2206562
51
45.7659334
0
ARC
8
right_labelLayer
10
10.0767496
20
8.3947896
40
0.24404
50
6.4733922
51
19.6470116
0
ARC
8
right_labelLayer
10
9.9465513
20
8.3780325
40
0.3753025
50
359.7942839
51
6.7743737
0
LINE
8
right_labelLayer
10
10.763661
20
8.0744768
11
10.763661
21
8.0080746
0
LINE
8
right_labelLayer
10
10.5064181
20
8.1675444
11
10.5064181
21
8.5084436
0
LINE
8
right_labelLayer
10
10.5064181
20
8.5084436
11
10.4243304
21
8.5084436
0
LINE
8
right_labelLayer
10
10.4243304
20
8.5084436
11
10.4243304
21
8.5502717
0
LINE
8
right_labelLayer
10
10.4243304
20
8.5502717
11
10.5064181
21
8.5863485
0
LINE
8
right_labelLayer
10
10.5064181
20
8.5863485
11
10.5430177
21
8.7086957
0
LINE
8
right_labelLayer
10
10.5430177
20
8.7086957
11
10.5932114
21
8.7086957
0
LINE
8
right_labelLayer
10
10.5932114
20
8.7086957
11
10.5932114
21
8.5758914
0
LINE
8
right_labelLayer
10
10.5932114
20
8.5758914
11
10.7594782
21
8.5758914
0
LINE
8
right_labelLayer
10
10.7594782
20
8.5758914
11
10.7594782
21
8.5084436
0
LINE
8
right_labelLayer
10
10.7594782
20
8.5084436
11
10.5932114
21
8.5084436
0
LINE
8
right_labelLayer
10
10.5932114
20
8.5084436
11
10.5932114
21
8.1712043
0
ARC
8
right_labelLayer
10
10.6858273
20
8.3490769
40
0.2850578
50
269.8806144
51
278.3026036
0
ARC
8
right_labelLayer
10
10.6882862
20
8.3286542
40
0.2644946
50
278.4143499
51
279.0029384
0
ARC
8
right_labelLayer
10
10.6565904
20
8.5310257
40
0.4693328
50
278.9586585
51
280.5107124
0
ARC
8
right_labelLayer
10
10.6870339
20
8.3676717
40
0.3031663
50
280.4854191
51
282.6273974
0
ARC
8
right_labelLayer
10
10.7137972
20
8.2487933
40
0.1813127
50
282.5869567
51
285.5806082
0
ARC
8
right_labelLayer
10
10.7284688
20
8.1951133
40
0.1256649
50
285.7108581
51
286.263081
0
ARC
8
right_labelLayer
10
10.7271635
20
8.0852707
40
0.0853891
50
287.9898955
51
295.3042901
0
ARC
8
right_labelLayer
10
10.7065805
20
8.147552
40
0.150983
50
283.3066092
51
288.1193882
0
ARC
8
right_labelLayer
10
10.684838
20
8.2382424
40
0.244243
50
280.0064406
51
283.3735388
0
ARC
8
right_labelLayer
10
10.6702338
20
8.3174747
40
0.3248083
50
279.1874487
51
280.1148638
0
ARC
8
right_labelLayer
10
10.6613587
20
8.3679354
40
0.3760393
50
275.5254154
51
279.2947856
0
ARC
8
right_labelLayer
10
10.6714103
20
8.2629011
40
0.2705251
50
270.89281
51
275.5484113
0
ARC
8
right_labelLayer
10
10.672688
20
8.2148147
40
0.2224254
50
269.9992009
51
270.7567446
0
ARC
8
right_labelLayer
10
10.669183
20
8.2190526
40
0.2266905
50
253.7845959
51
270.8851233
0
ARC
8
right_labelLayer
10
10.6423256
20
8.1274614
40
0.1312434
50
190.3818017
51
253.8772198
0
ARC
8
right_labelLayer
10
10.779216
20
8.1644738
40
0.2728152
50
179.3551116
51
192.8477222
0
ARC
8
right_labelLayer
10
10.7679872
20
8.1701123
40
0.1747792
50
179.642019
51
189.7505912
0
ARC
8
right_labelLayer
10
10.7062828
20
8.1591066
40
0.1121031
50
189.5479628
51
205.7873666
0
ARC
8
right_labelLayer
10
10.6809222
20
8.1474104
40
0.0841813
50
206.1285118
51
221.408657
0
ARC
8
right_labelLayer
10
10.6780845
20
8.1452572
40
0.080629
50
221.5948455
51
262.3504452
0
ARC
8
right_labelLayer
10
10.6848471
20
8.1800265
40
0.1160076
50
261.3259846
51
270.1907574
0
LINE
8
bottom_outsideCutPath
10
13.135
20
12.781
11
13.135
21
11.41825
0
LINE
8
bottom_outsideCutPath
10
13.135
20
11.41825
11
12.958
21
11.41825
0
LINE
8
bottom_outsideCutPath
10
12.958
20
11.41825
11
12.958
21
10.32675
0
LINE
8
bottom_outsideCutPath
10
12.958
20
10.32675
11
13.135
21
10.32675
0
LINE
8
bottom_outsideCutPath
10
13.135
20
10.32675
11
13.135
21
9.23525
0
LINE
8
bottom_outsideCutPath
10
13.135
20
9.23525
11
12.958
21
9.23525
0
LINE
8
bottom_outsideCutPath
10
12.958
20
9.23525
11
12.958
21
8.14375
0
LINE
8
bottom_outsideCutPath
10
12.958
20
8.14375
11
13.135
21
8.14375
0
LINE
8
bottom_outsideCutPath
10
13.135
20
8.14375
11
13.135
21
7.05225
0
LINE
8
bottom_outsideCutPath
10
13.135
20
7.05225
11
13.135
21
6.781
0
LINE
8
bottom_outsideCutPath
10
13.135
20
6.781
11
14.49775
21
6.781
0
LINE
8
bottom_outsideCutPath
10
14.49775
20
6.781
11
14.49775
21
6.604
0
LINE
8
bottom_outsideCutPath
10
14.49775
20
6.604
11
15.58925
21
6.604
0
LINE
8
bottom_outsideCutPath
10
15.58925
20
6.604
11
15.58925
21
6.781
0
LINE
8
bottom_outsideCutPath
10
15.58925
20
6.781
11
16.68075
21
6.781
0
LINE
8
bottom_outsideCutPath
10
16.68075
20
6.781
11
16.68075
21
6.604
0
LINE
8
bottom_outsideCutPath
10
16.68075
20
6.604
11
17.77225
21
6.604
0
LINE
8
bottom_outsideCutPath
10
17.77225
20
6.604
11
17.77225
21
6.781
0
LINE
8
bottom_outsideCutPath
10
17.77225
20
6.781
11
18.86375
21
6.781
0
LINE
8
bottom_outsideCutPath
10
18.86375
20
6.781
11
19.135
21
6.781
0
LINE
8
bottom_outsideCutPath
10
19.135
20
6.781
11
19.135
21
8.14375
0
LINE
8
bottom_outsideCutPath
10
19.135
20
8.14375
11
19.312
21
8.14375
0
LINE
8
bottom_outsideCutPath
10
19.312
20
8.14375
11
19.312
21
9.23525
0
LINE
8
bottom_outsideCutPath
10
19.312
20
9.23525
11
19.135
21
9.23525
0
LINE
8
bottom_outsideCutPath
10
19.135
20
9.23525
11
19.135
21
10.32675
0
LINE
8
bottom_outsideCutPath
10
19.135
20
10.32675
11
19.312
21
10.32675
0
LINE
8
bottom_outsideCutPath
10
19.312
20
10.32675
11
19.312
21
11.41825
0
LINE
8
bottom_outsideCutPath
10
19.312
20
11.41825
11
19.135
21
11.41825
0
LINE
8
bottom_outsideCutPath
10
19.135
20
11.41825
11
19.135
21
12.50975
0
LINE
8
bottom_outsideCutPath
10
19.135
20
12.50975
11
19.135
21
12.781
0
LINE
8
bottom_outsideCutPath
10
19.135
20
12.781
11
17.77225
21
12.781
0
LINE
8
bottom_outsideCutPath
10
17.77225
20
12.781
11
17.77225
21
12.958
0
LINE
8
bottom_outsideCutPath
10
17.77225
20
12.958
11
16.68075
21
12.958
0
LINE
8
bottom_outsideCutPath
10
16.68075
20
12.958
11
16.68075
21
12.781
0
LINE
8
bottom_outsideCutPath
10
16.68075
20
12.781
11
15.58925
21
12.781
0
LINE
8
bottom_outsideCutPath
10
15.58925
20
12.781
11
15.58925
21
12.958
0
LINE
8
bottom_outsideCutPath
10
15.58925
20
12.958
11
14.49775
21
12.958
0
LINE
8
bottom_outsideCutPath
10
14.49775
20
12.958
11
14.49775
21
12.781
0
LINE
8
bottom_outsideCutPath
10
14.49775
20
12.781
11
13.40625
21
12.781
0
LINE
8
bottom_outsideCutPath
10
13.40625
20
12.781
11
13.135
21
12.781
0
LINE
8
bottom_labelLayer
10
14.1475104
20
9.3919577
11
14.1400643
21
9.3919577
0
LINE
8
bottom_labelLayer
10
14.1400643
20
9.3919577
11
14.1183466
21
9.3044661
0
LINE
8
bottom_labelLayer
10
14.1183466
20
9.3044661
11
14.0445061
21
9.3044661
0
LINE
8
bottom_labelLayer
10
14.0445061
20
9.3044661
11
14.0445061
21
10.2699762
0
LINE
8
bottom_labelLayer
10
14.0445061
20
10.2699762
11
14.1475104
21
10.2699762
0
LINE
8
bottom_labelLayer
10
14.1475104
20
10.2699762
11
14.1475104
21
10.0354243
0
LINE
8
bottom_labelLayer
10
14.1425464
20
9.8939485
11
14.1475104
21
9.8939485
0
ARC
8
bottom_labelLayer
10
14.3640545
20
9.6809092
40
0.3148177
50
74.2392698
51
90.56227
0
ARC
8
bottom_labelLayer
10
14.3848713
20
9.7572763
40
0.2356686
50
38.563225
51
74.0669769
0
ARC
8
bottom_labelLayer
10
14.3313047
20
9.7156248
40
0.3035192
50
16.4707549
51
38.4076593
0
ARC
8
bottom_labelLayer
10
14.1769569
20
9.6672266
40
0.465263
50
5.1340399
51
16.797166
0
ARC
8
bottom_labelLayer
10
13.9821215
20
9.6465315
40
0.6611763
50
359.8781046
51
5.4093542
0
ARC
8
bottom_labelLayer
10
14.0393639
20
9.6415618
40
0.6039428
50
350.6563509
51
0.3380285
0
ARC
8
bottom_labelLayer
10
14.2499145
20
9.6057502
40
0.3903732
50
335.830474
51
350.8254885
0
ARC
8
bottom_labelLayer
10
14.3425209
20
9.5657804
40
0.2895234
50
321.3161842
51
335.5433973
0
ARC
8
bottom_labelLayer
10
14.3779325
20
9.5369254
40
0.2438463
50
274.0639196
51
321.4081437
0
ARC
8
bottom_labelLayer
10
14.3614393
20
9.6413912
40
0.3493355
50
269.9222334
51
275.5481387
0
ARC
8
bottom_labelLayer
10
14.3592289
20
9.6044934
40
0.3124424
50
255.77576
51
270.3183924
0
ARC
8
bottom_labelLayer
10
14.3503095
20
9.5648648
40
0.2718392
50
245.9799968
51
255.5456991
0
ARC
8
bottom_labelLayer
10
14.333043
20
9.5247125
40
0.2281362
50
215.5850056
51
245.8361076
0
ARC
8
bottom_labelLayer
10
11.9994862
20
10.0336143
40
2.148025
50
358.1125804
51
0.0482775
0
ARC
8
bottom_labelLayer
10
12.5972297
20
10.0135648
40
1.5499454
50
355.7241959
51
358.1255747
0
ARC
8
bottom_labelLayer
10
12.7869631
20
10.0012002
40
1.3598194
50
355.4762668
51
355.6476846
0
ARC
8
bottom_labelLayer
10
14.3396094
20
9.7599922
40
0.2341929
50
95.1836039
51
145.110798
0
ARC
8
bottom_labelLayer
10
14.3601951
20
9.6439096
40
0.3518032
50
89.8745918
51
96.8146911
0
ARC
8
bottom_labelLayer
10
14.3439165
20
9.6200204
40
0.2894488
50
89.5731285
51
100.7324927
0
ARC
8
bottom_labelLayer
10
14.3224899
20
9.7282755
40
0.1790995
50
100.4470964
51
119.6700179
0
ARC
8
bottom_labelLayer
10
14.3026195
20
9.7654258
40
0.1369887
50
120.1403076
51
142.424881
0
ARC
8
bottom_labelLayer
10
14.3354958
20
9.7436781
40
0.1763291
50
143.3385597
51
161.2559178
0
ARC
8
bottom_labelLayer
10
14.4729663
20
9.6948719
40
0.3221987
50
160.8926764
51
171.2332534
0
ARC
8
bottom_labelLayer
10
14.7024355
20
9.6578533
40
0.5546314
50
171.0667022
51
177.8457405
0
ARC
8
bottom_labelLayer
10
14.9412155
20
9.6457139
40
0.7937052
50
177.6179863
51
180.0425258
0
ARC
8
bottom_labelLayer
10
14.8285464
20
9.6424654
40
0.6810412
50
179.7762643
51
185.7076513
0
ARC
8
bottom_labelLayer
10
14.5600392
20
9.6147984
40
0.4111145
50
185.5925194
51
194.2052277
0
ARC
8
bottom_labelLayer
10
14.3880413
20
9.5701586
40
0.2334239
50
193.9432478
51
208.0217306
0
ARC
8
bottom_labelLayer
10
14.3184444
20
9.5347543
40
0.1553594
50
208.5540077
51
217.5606449
0
ARC
8
bottom_labelLayer
10
14.312771
20
9.5323932
40
0.1494313
50
218.1690856
51
253.804748
0
ARC
8
bottom_labelLayer
10
14.3404863
20
9.6178402
40
0.2392339
50
253.1381464
51
266.8485699
0
ARC
8
bottom_labelLayer
10
14.34826
20
9.7094996
40
0.3311932
50
266.3774932
51
270.0510294
0
ARC
8
bottom_labelLayer
10
14.3507522
20
9.5836328
40
0.2053381
50
269.3868987
51
285.8630693
0
ARC
8
bottom_labelLayer
10
14.3660078
20
9.5284976
40
0.1481331
50
286.0162087
51
326.8497828
0
ARC
8
bottom_labelLayer
10
14.2923797
20
9.5772739
40
0.2364508
50
326.7104541
51
343.6663168
0
ARC
8
bottom_labelLayer
10
14.1545414
20
9.6193929
40
0.3805748
50
343.417211
51
353.6368583
0
ARC
8
bottom_labelLayer
10
13.9463701
20
9.6440924
40
0.5902029
50
353.4935898
51
0.2207045
0
ARC
8
bottom_labelLayer
10
13.9280132
20
9.6488275
40
0.6085606
50
359.7682362
51
6.3096541
0
ARC
8
bottom_labelLayer
10
14.1572442
20
9.6751349
40
0.3778284
50
6.1648039
51
16.0395095
0
ARC
8
bottom_labelLayer
10
14.3047963
20
9.718606
40
0.2240114
50
15.781152
51
31.9757546
0
ARC
8
bottom_labelLayer
10
14.3509121
20
9.74499
40
0.1709329
50
32.6596745
51
35.5233374
0
ARC
8
bottom_labelLayer
10
14.3678032
20
9.7569917
40
0.1502121
50
35.541024
51
79.8009954
0
ARC
8
bottom_labelLayer
10
14.3476311
20
9.6712373
40
0.2382291
50
78.6779859
51
90.3747592
0
ARC
8
bottom_labelLayer
10
14.8781951
20
9.641538
40
0.5320608
50
349.1762159
51
0.3862575
0
ARC
8
bottom_labelLayer
10
15.0573278
20
9.605828
40
0.349412
50
330.2507037
51
349.4116071
0
ARC
8
bottom_labelLayer
10
15.1124568
20
9.5771731
40
0.2873407
50
318.1440733
51
329.756778
0
ARC
8
bottom_labelLayer
10
15.1224062
20
9.5691999
40
0.2746107
50
278.8958772
51
317.9979965
0
ARC
8
bottom_labelLayer
10
15.096768
20
9.6920463
40
0.3999942
50
269.7504583
51
279.8030535
0
ARC
8
bottom_labelLayer
10
15.0926107
20
9.6228202
40
0.3307731
50
253.5436658
51
270.4183511
0
ARC
8
bottom_labelLayer
10
15.0816001
20
9.5802303
40
0.2868127
50
238.811651
51
253.2429223
0
ARC
8
bottom_labelLayer
10
15.0780475
20
9.5730845
40
0.2788606
50
207.7947705
51
238.675752
0
ARC
8
bottom_labelLayer
10
15.1290391
20
9.6043153
40
0.3385539
50
205.65622
51
208.4463165
0
ARC
8
bottom_labelLayer
10
15.1683129
20
9.6206785
40
0.381047
50
188.9102728
51
205.3172283
0
ARC
8
bottom_labelLayer
10
15.3006754
20
9.6430965
40
0.515287
50
179.7744622
51
189.0933127
0
ARC
8
bottom_labelLayer
10
15.3202017
20
9.6487483
40
0.5348215
50
169.2443833
51
180.3881886
0
ARC
8
bottom_labelLayer
10
15.1385882
20
9.6846448
40
0.3497021
50
150.71136
51
169.46936
0
ARC
8
bottom_labelLayer
10
15.0805931
20
9.7144282
40
0.2845605
50
138.1757215
51
150.2289799
0
ARC
8
bottom_labelLayer
10
15.0709577
20
9.7218226
40
0.2724508
50
99.1759619
51
137.9832753
0
ARC
8
bottom_labelLayer
10
15.0975016
20
9.5969042
40
0.4000529
50
89.7324862
51
100.0759713
0
ARC
8
bottom_labelLayer
10
15.1028074
20
9.6508485
40
0.3461214
50
73.5222236
51
90.5691304
0
ARC
8
bottom_labelLayer
10
15.1231052
20
9.7245959
40
0.2696495
50
41.1446436
51
73.2132972
0
ARC
8
bottom_labelLayer
10
15.0843585
20
9.6912942
40
0.3207393
50
13.5014661
51
41.0703333
0
ARC
8
bottom_labelLayer
10
14.934659
20
9.6521198
40
0.4754581
50
1.1277656
51
13.8800221
0
ARC
8
bottom_labelLayer
10
14.8054282
20
9.645203
40
0.6048157
50
359.9926
51
1.5419396
0
ARC
8
bottom_labelLayer
10
15.4137278
20
9.6424493
40
0.5216149
50
179.7061039
51
187.9161683
0
ARC
8
bottom_labelLayer
10
15.2224025
20
9.6149636
40
0.3283287
50
187.7637128
51
200.097906
0
ARC
8
bottom_labelLayer
10
15.1170146
20
9.5763467
40
0.2160884
50
200.084275
51
216.9134393
0
ARC
8
bottom_labelLayer
10
15.078536
20
9.5488704
40
0.1688245
50
217.3010254
51
261.7098129
0
ARC
8
bottom_labelLayer
10
15.0964031
20
9.6341261
40
0.2558222
50
260.5030784
51
270.2474412
0
ARC
8
bottom_labelLayer
10
15.0998123
20
9.6175496
40
0.2392542
50
269.4481426
51
284.7254435
0
ARC
8
bottom_labelLayer
10
15.1187523
20
9.5473049
40
0.1665029
50
284.5662427
51
322.6333766
0
ARC
8
bottom_labelLayer
10
15.0744706
20
9.5792972
40
0.2211179
50
323.0087687
51
342.6390102
0
ARC
8
bottom_labelLayer
10
14.9478009
20
9.620695
40
0.3543738
50
342.3617565
51
353.7536533
0
ARC
8
bottom_labelLayer
10
14.7609475
20
9.6432175
40
0.5425724
50
353.5362789
51
0.2014199
0
ARC
8
bottom_labelLayer
10
14.7895757
20
9.6477493
40
0.5139475
50
359.7074208
51
7.8971339
0
ARC
8
bottom_labelLayer
10
14.9777901
20
9.6747292
40
0.3238121
50
7.7441886
51
20.0689268
0
ARC
8
bottom_labelLayer
10
15.0826817
20
9.7132199
40
0.2120815
50
20.025718
51
37.4350228
0
ARC
8
bottom_labelLayer
10
15.1174816
20
9.737913
40
0.1694459
50
37.9578469
51
80.4005203
0
ARC
8
bottom_labelLayer
10
15.0977054
20
9.6496696
40
0.2597956
50
79.3454042
51
90.3172482
0
ARC
8
bottom_labelLayer
10
15.0940453
20
9.6643334
40
0.2451378
50
89.4807549
51
103.8806828
0
ARC
8
bottom_labelLayer
10
15.0734465
20
9.7427699
40
0.1640546
50
103.4684455
51
142.3118432
0
ARC
8
bottom_labelLayer
10
15.1134928
20
9.7146075
40
0.2129739
50
142.9027929
51
162.3749936
0
ARC
8
bottom_labelLayer
10
15.2396651
20
9.6725606
40
0.3459599
50
162.0652852
51
173.1676076
0
ARC
8
bottom_labelLayer
10
15.4364302
20
9.647464
40
0.5443155
50
173.0086498
51
180.2462251
0
LINE
8
bottom_labelLayer
10
15.9035475
20
9.3894756
11
15.9035475
21
9.3106711
0
LINE
8
bottom_labelLayer
10
15.5982577
20
9.499926
11
15.5982577
21
9.9044971
0
LINE
8
bottom_labelLayer
10
15.5982577
20
9.9044971
11
15.500838
21
9.9044971
0
LINE
8
bottom_labelLayer
10
15.500838
20
9.9044971
11
15.500838
21
9.9541377
0
LINE
8
bottom_labelLayer
10
15.500838
20
9.9541377
11
15.5982577
21
9.9969528
0
LINE
8
bottom_labelLayer
10
15.5982577
20
9.9969528
11
15.6416932
21
10.1421516
0
LINE
8
bottom_labelLayer
10
15.6416932
20
10.1421516
11
15.701262
21
10.1421516
0
LINE
8
bottom_labelLayer
10
15.701262
20
10.1421516
11
15.701262
21
9.9845426
0
LINE
8
bottom_labelLayer
10
15.701262
20
9.9845426
11
15.8985835
21
9.9845426
0
LINE
8
bottom_labelLayer
10
15.8985835
20
9.9845426
11
15.8985835
21
9.9044971
0
LINE
8
bottom_labelLayer
10
15.8985835
20
9.9044971
11
15.701262
21
9.9044971
0
LINE
8
bottom_labelLayer
10
15.701262
20
9.9044971
11
15.701262
21
9.5042696
0
ARC
8
bottom_labelLayer
10
15.8111779
20
9.7153521
40
0.3382874
50
269.8803403
51
278.30264
0
ARC
8
bottom_labelLayer
10
15.8152096
20
9.6837435
40
0.3064284
50
278.4101199
51
279.013052
0
ARC
8
bottom_labelLayer
10
15.7765076
20
9.9311086
40
0.5568024
50
278.9587321
51
280.5113171
0
ARC
8
bottom_labelLayer
10
15.8126458
20
9.7372812
40
0.3596351
50
280.4839285
51
282.6268337
0
ARC
8
bottom_labelLayer
10
15.8443355
20
9.5964978
40
0.2153292
50
282.5874545
51
285.5789992
0
ARC
8
bottom_labelLayer
10
15.861189
20
9.5346726
40
0.1512495
50
285.7191327
51
286.2636396
0
ARC
8
bottom_labelLayer
10
15.8602471
20
9.402254
40
0.1013033
50
287.9879134
51
295.3047989
0
ARC
8
bottom_labelLayer
10
15.8357834
20
9.4762759
40
0.1792625
50
283.307935
51
288.1185791
0
ARC
8
bottom_labelLayer
10
15.8099734
20
9.5839625
40
0.2899986
50
280.0074486
51
283.3729589
0
ARC
8
bottom_labelLayer
10
15.7926178
20
9.678259
40
0.3858771
50
279.1856926
51
280.1121406
0
ARC
8
bottom_labelLayer
10
15.782109
20
9.7379668
40
0.4464976
50
275.5263245
51
279.2938098
0
ARC
8
bottom_labelLayer
10
15.7940611
20
9.6131465
40
0.3211065
50
270.893637
51
275.5484611
0
ARC
8
bottom_labelLayer
10
15.7955646
20
9.5567583
40
0.2647024
50
270.0031472
51
270.7585927
0
ARC
8
bottom_labelLayer
10
15.7914233
20
9.5610581
40
0.2690343
50
253.784789
51
270.885105
0
ARC
8
bottom_labelLayer
10
15.7595492
20
9.4523562
40
0.1557562
50
190.3817255
51
253.8773285
0
ARC
8
bottom_labelLayer
10
15.9220084
20
9.4962826
40
0.3237713
50
179.3552303
51
192.8478122
0
ARC
8
bottom_labelLayer
10
15.9086613
20
9.5029712
40
0.2074034
50
179.6413201
51
189.7508949
0
ARC
8
bottom_labelLayer
10
15.8354456
20
9.4899102
40
0.1330341
50
189.5475666
51
205.7878453
0
ARC
8
bottom_labelLayer
10
15.8053612
20
9.4760363
40
0.0999119
50
206.1294341
51
221.408394
0
ARC
8
bottom_labelLayer
10
15.801987
20
9.473476
40
0.0956883
50
221.594894
51
262.3506088
0
ARC
8
bottom_labelLayer
10
15.8100117
20
9.5147496
40
0.1376848
50
261.3271637
51
270.1912957
0
LINE
8
bottom_labelLayer
10
16.3521747
20
9.3894756
11
16.3521747
21
9.3106711
0
LINE
8
bottom_labelLayer
10
16.0468848
20
9.499926
11
16.0468848
21
9.9044971
0
LINE
8
bottom_labelLayer
10
16.0468848
20
9.9044971
11
15.9494651
21
9.9044971
0
LINE
8
bottom_labelLayer
10
15.9494651
20
9.9044971
11
15.9494651
21
9.9541377
0
LINE
8
bottom_labelLayer
10
15.9494651
20
9.9541377
11
16.0468848
21
9.9969528
0
LINE
8
bottom_labelLayer
10
16.0468848
20
9.9969528
11
16.0903204
21
10.1421516
0
LINE
8
bottom_labelLayer
10
16.0903204
20
10.1421516
11
16.1498891
21
10.1421516
0
LINE
8
bottom_labelLayer
10
16.1498891
20
10.1421516
11
16.1498891
21
9.9845426
0
LINE
8
bottom_labelLayer
10
16.1498891
20
9.9845426
11
16.3472106
21
9.9845426
0
LINE
8
bottom_labelLayer
10
16.3472106
20
9.9845426
11
16.3472106
21
9.9044971
0
LINE
8
bottom_labelLayer
10
16.3472106
20
9.9044971
11
16.1498891
21
9.9044971
0
LINE
8
bottom_labelLayer
10
16.1498891
20
9.9044971
11
16.1498891
21
9.5042696
0
ARC
8
bottom_labelLayer
10
16.259805
20
9.7153521
40
0.3382874
50
269.8803403
51
278.30264
0
ARC
8
bottom_labelLayer
10
16.2638368
20
9.6837435
40
0.3064284
50
278.4101199
51
279.013052
0
ARC
8
bottom_labelLayer
10
16.2251347
20
9.9311086
40
0.5568024
50
278.9587321
51
280.5113171
0
ARC
8
bottom_labelLayer
10
16.2612729
20
9.7372812
40
0.3596351
50
280.4839285
51
282.6268337
0
ARC
8
bottom_labelLayer
10
16.2929627
20
9.5964978
40
0.2153292
50
282.5874545
51
285.5789992
0
ARC
8
bottom_labelLayer
10
16.3098161
20
9.5346726
40
0.1512495
50
285.7191327
51
286.2636396
0
ARC
8
bottom_labelLayer
10
16.3088743
20
9.402254
40
0.1013033
50
287.9879134
51
295.3047989
0
ARC
8
bottom_labelLayer
10
16.2844105
20
9.4762759
40
0.1792625
50
283.307935
51
288.1185791
0
ARC
8
bottom_labelLayer
10
16.2586006
20
9.5839625
40
0.2899986
50
280.0074486
51
283.3729589
0
ARC
8
bottom_labelLayer
10
16.2412449
20
9.678259
40
0.3858771
50
279.1856926
51
280.1121406
0
ARC
8
bottom_labelLayer
10
16.2307362
20
9.7379668
40
0.4464976
50
275.5263245
51
279.2938098
0
ARC
8
bottom_labelLayer
10
16.2426883
20
9.6131465
40
0.3211065
50
270.893637
51
275.5484611
0
ARC
8
bottom_labelLayer
10
16.2441918
20
9.5567583
40
0.2647024
50
270.0031472
51
270.7585927
0
ARC
8
bottom_labelLayer
10
16.2400504
20
9.5610581
40
0.2690343
50
253.784789
51
270.885105
0
ARC
8
bottom_labelLayer
10
16.2081763
20
9.4523562
40
0.1557562
50
190.3817255
51
253.8773285
0
ARC
8
bottom_labelLayer
10
16.3706355
20
9.4962826
40
0.3237713
50
179.3552303
51
192.8478122
0
ARC
8
bottom_labelLayer
10
16.3572884
20
9.5029712
40
0.2074034
50
179.6413201
51
189.7508949
0
ARC
8
bottom_labelLayer
10
16.2840727
20
9.4899102
40
0.1330341
50
189.5475666
51
205.7878453
0
ARC
8
bottom_labelLayer
10
16.2539884
20
9.4760363
40
0.0999119
50
206.1294341
51
221.408394
0
ARC
8
bottom_labelLayer
10
16.2506142
20
9.473476
40
0.0956883
50
221.594894
51
262.3506088
0
ARC
8
bottom_labelLayer
10
16.2586388
20
9.5147496
40
0.1376848
50
261.3271637
51
270.1912957
0
ARC
8
bottom_labelLayer
10
16.5430175
20
9.641538
40
0.5320608
50
349.1762159
51
0.3862575
0
ARC
8
bottom_labelLayer
10
16.7221502
20
9.605828
40
0.349412
50
330.2507037
51
349.4116071
0
ARC
8
bottom_labelLayer
10
16.7772793
20
9.5771731
40
0.2873407
50
318.1440733
51
329.756778
0
ARC
8
bottom_labelLayer
10
16.7872286
20
9.5691999
40
0.2746107
50
278.8958772
51
317.9979965
0
ARC
8
bottom_labelLayer
10
16.7615904
20
9.6920463
40
0.3999942
50
269.7504583
51
279.8030535
0
ARC
8
bottom_labelLayer
10
16.7574332
20
9.6228202
40
0.3307731
50
253.5436658
51
270.4183511
0
ARC
8
bottom_labelLayer
10
16.7464225
20
9.5802303
40
0.2868127
50
238.811651
51
253.2429223
0
ARC
8
bottom_labelLayer
10
16.74287
20
9.5730845
40
0.2788606
50
207.7947705
51
238.675752
0
ARC
8
bottom_labelLayer
10
16.7938616
20
9.6043153
40
0.3385539
50
205.65622
51
208.4463165
0
ARC
8
bottom_labelLayer
10
16.8331353
20
9.6206785
40
0.381047
50
188.9102728
51
205.3172283
0
ARC
8
bottom_labelLayer
10
16.9654979
20
9.6430965
40
0.515287
50
179.7744622
51
189.0933127
0
ARC
8
bottom_labelLayer
10
16.9850241
20
9.6487483
40
0.5348215
50
169.2443833
51
180.3881886
0
ARC
8
bottom_labelLayer
10
16.8034106
20
9.6846448
40
0.3497021
50
150.71136
51
169.46936
0
ARC
8
bottom_labelLayer
10
16.7454156
20
9.7144282
40
0.2845605
50
138.1757215
51
150.2289799
0
ARC
8
bottom_labelLayer
10
16.7357802
20
9.7218226
40
0.2724508
50
99.1759619
51
137.9832753
0
ARC
8
bottom_labelLayer
10
16.762324
20
9.5969042
40
0.4000529
50
89.7324862
51
100.0759713
0
ARC
8
bottom_labelLayer
10
16.7676299
20
9.6508485
40
0.3461214
50
73.5222236
51
90.5691304
0
ARC
8
bottom_labelLayer
10
16.7879276
20
9.7245959
40
0.2696495
50
41.1446436
51
73.2132972
0
ARC
8
bottom_labelLayer
10
16.7491809
20
9.6912942
40
0.3207393
50
13.5014661
51
41.0703333
0
ARC
8
bottom_labelLayer
10
16.5994814
20
9.6521198
40
0.4754581
50
1.1277656
51
13.8800221
0
ARC
8
bottom_labelLayer
10
16.4702506
20
9.645203
40
0.6048157
50
359.9926
51
1.5419396
0
ARC
8
bottom_labelLayer
10
17.0785503
20
9.6424493
40
0.5216149
50
179.7061039
51
187.9161683
0
ARC
8
bottom_labelLayer
10
16.887225
20
9.6149636
40
0.3283287
50
187.7637128
51
200.097906
0
ARC
8
bottom_labelLayer
10
16.7818371
20
9.5763467
40
0.2160884
50
200.084275
51
216.9134393
0
ARC
8
bottom_labelLayer
10
16.7433585
20
9.5488704
40
0.1688245
50
217.3010254
51
261.7098129
0
ARC
8
bottom_labelLayer
10
16.7612255
20
9.6341261
40
0.2558222
50
260.5030784
51
270.2474412
0
ARC
8
bottom_labelLayer
10
16.7646347
20
9.6175496
40
0.2392542
50
269.4481426
51
284.7254435
0
ARC
8
bottom_labelLayer
10
16.7835748
20
9.5473049
40
0.1665029
50
284.5662427
51
322.6333766
0
ARC
8
bottom_labelLayer
10
16.739293
20
9.5792972
40
0.2211179
50
323.0087687
51
342.6390102
0
ARC
8
bottom_labelLayer
10
16.6126233
20
9.620695
40
0.3543738
50
342.3617565
51
353.7536533
0
ARC
8
bottom_labelLayer
10
16.4257699
20
9.6432175
40
0.5425724
50
353.5362789
51
0.2014199
0
ARC
8
bottom_labelLayer
10
16.4543982
20
9.6477493
40
0.5139475
50
359.7074208
51
7.8971339
0
ARC
8
bottom_labelLayer
10
16.6426125
20
9.6747292
40
0.3238121
50
7.7441886
51
20.0689268
0
ARC
8
bottom_labelLayer
10
16.7475041
20
9.7132199
40
0.2120815
50
20.025718
51
37.4350228
0
ARC
8
bottom_labelLayer
10
16.7823041
20
9.737913
40
0.1694459
50
37.9578469
51
80.4005203
0
ARC
8
bottom_labelLayer
10
16.7625278
20
9.6496696
40
0.2597956
50
79.3454042
51
90.3172482
0
ARC
8
bottom_labelLayer
10
16.7588678
20
9.6643334
40
0.2451378
50
89.4807549
51
103.8806828
0
ARC
8
bottom_labelLayer
10
16.7382689
20
9.7427699
40
0.1640546
50
103.4684455
51
142.3118432
0
ARC
8
bottom_labelLayer
10
16.7783152
20
9.7146075
40
0.2129739
50
142.9027929
51
162.3749936
0
ARC
8
bottom_labelLayer
10
16.9044875
20
9.6725606
40
0.3459599
50
162.0652852
51
173.1676076
0
ARC
8
bottom_labelLayer
10
17.1012527
20
9.647464
40
0.5443155
50
173.0086498
51
180.2462251
0
LINE
8
bottom_labelLayer
10
18.2254878
20
9.3044661
11
18.1224835
21
9.3044661
0
LINE
8
bottom_labelLayer
10
18.1224835
20
9.3044661
11
18.1224835
21
9.7468881
0
LINE
8
bottom_labelLayer
10
17.7917528
20
9.6842168
11
17.7917528
21
9.3044661
0
LINE
8
bottom_labelLayer
10
17.7917528
20
9.3044661
11
17.6887485
21
9.3044661
0
LINE
8
bottom_labelLayer
10
17.6887485
20
9.3044661
11
17.6887485
21
9.7468881
0
LINE
8
bottom_labelLayer
10
17.3586384
20
9.661258
11
17.3586384
21
9.3044661
0
LINE
8
bottom_labelLayer
10
17.3586384
20
9.3044661
11
17.2556341
21
9.3044661
0
LINE
8
bottom_labelLayer
10
17.2556341
20
9.3044661
11
17.2556341
21
9.9845426
0
LINE
8
bottom_labelLayer
10
17.2556341
20
9.9845426
11
17.3394026
21
9.9845426
0
LINE
8
bottom_labelLayer
10
17.3394026
20
9.9845426
11
17.3561563
21
9.8914664
0
LINE
8
bottom_labelLayer
10
17.3561563
20
9.8914664
11
17.3611204
21
9.8914664
0
LINE
8
bottom_labelLayer
10
17.7706555
20
9.8815383
11
17.7756196
21
9.8815383
0
LINE
8
bottom_labelLayer
10
18.2254878
20
9.7481291
11
18.2254878
21
9.3044661
0
ARC
8
bottom_labelLayer
10
17.8186401
20
9.7485078
40
0.3038476
50
359.6945761
51
8.147539
0
ARC
8
bottom_labelLayer
10
17.930528
20
9.7650666
40
0.1907432
50
7.9869649
51
20.7944867
0
ARC
8
bottom_labelLayer
10
17.9924106
20
9.7887699
40
0.1244767
50
20.707058
51
40.0216091
0
ARC
8
bottom_labelLayer
10
18.005983
20
9.797649
40
0.10839
50
41.0410762
51
73.1790551
0
ARC
8
bottom_labelLayer
10
17.9863434
20
9.7382464
40
0.170942
50
72.6396595
51
86.2565992
0
ARC
8
bottom_labelLayer
10
17.9800526
20
9.6703806
40
0.2390808
50
85.8140489
51
90.068512
0
ARC
8
bottom_labelLayer
10
17.9777421
20
9.644423
40
0.2650459
50
89.5623293
51
101.2963783
0
ARC
8
bottom_labelLayer
10
17.9577792
20
9.7399875
40
0.1674248
50
101.0032436
51
121.7837771
0
ARC
8
bottom_labelLayer
10
17.9426052
20
9.7670809
40
0.1364086
50
122.3600732
51
140.2882097
0
ARC
8
bottom_labelLayer
10
17.969909
20
9.7470619
40
0.1702155
50
140.9766197
51
161.1696581
0
ARC
8
bottom_labelLayer
10
18.0727695
20
9.7104566
40
0.2793894
50
160.8730934
51
172.5270293
0
ARC
8
bottom_labelLayer
10
18.2446496
20
9.686721
40
0.452898
50
172.3778009
51
180.1830041
0
ARC
8
bottom_labelLayer
10
18.257209
20
9.6843055
40
0.4654563
50
179.8807273
51
180.0109119
0
ARC
8
bottom_labelLayer
10
17.3849052
20
9.7485078
40
0.3038476
50
359.6945761
51
8.147539
0
ARC
8
bottom_labelLayer
10
17.4967931
20
9.7650666
40
0.1907432
50
7.9869649
51
20.7944867
0
ARC
8
bottom_labelLayer
10
17.5586756
20
9.7887699
40
0.1244767
50
20.707058
51
40.0216091
0
ARC
8
bottom_labelLayer
10
17.5725312
20
9.797846
40
0.1080471
50
41.0608788
51
72.8993233
0
ARC
8
bottom_labelLayer
10
17.5525192
20
9.7382697
40
0.1708815
50
72.3598974
51
85.9560537
0
ARC
8
bottom_labelLayer
10
17.5457476
20
9.6682916
40
0.2411697
50
85.5237158
51
90.0799206
0
ARC
8
bottom_labelLayer
10
17.5434355
20
9.6536286
40
0.2558402
50
89.5575402
51
101.4830971
0
ARC
8
bottom_labelLayer
10
17.5237991
20
9.7456341
40
0.1617698
50
101.1547526
51
123.0655433
0
ARC
8
bottom_labelLayer
10
17.5104505
20
9.7688863
40
0.1350088
50
123.7019902
51
142.3022416
0
ARC
8
bottom_labelLayer
10
17.5417199
20
9.7476732
40
0.1727382
50
143.077182
51
161.3912206
0
ARC
8
bottom_labelLayer
10
17.6677422
20
9.7031641
40
0.3063813
50
161.023214
51
171.4468509
0
ARC
8
bottom_labelLayer
10
17.8763839
20
9.6704804
40
0.517565
50
171.3040913
51
178.3501137
0
ARC
8
bottom_labelLayer
10
18.0757939
20
9.6615749
40
0.7171556
50
178.0976163
51
180.0253136
0
ARC
8
bottom_labelLayer
10
17.5356226
20
9.788851
40
0.2024375
50
117.1208393
51
149.5424805
0
ARC
8
bottom_labelLayer
10
17.5562831
20
9.752132
40
0.2445432
50
93.834132
51
117.5073881
0
ARC
8
bottom_labelLayer
10
17.5619906
20
9.7015619
40
0.2953908
50
89.9661834
51
94.282807
0
ARC
8
bottom_labelLayer
10
17.5654097
20
9.6597341
40
0.3372343
50
77.5571217
51
90.551288
0
ARC
8
bottom_labelLayer
10
17.5967025
20
9.7943253
40
0.1990681
50
52.7026403
51
78.0055343
0
ARC
8
bottom_labelLayer
10
17.6078511
20
9.8150669
40
0.1758515
50
22.2097123
51
51.4971331
0
ARC
8
bottom_labelLayer
10
17.9622162
20
9.7745997
40
0.2150678
50
119.4041943
51
150.1829614
0
ARC
8
bottom_labelLayer
10
17.986242
20
9.7380243
40
0.2587443
50
118.2604542
51
120.0626382
0
ARC
8
bottom_labelLayer
10
17.9860011
20
9.7356729
40
0.2607046
50
95.8635746
51
117.9691359
0
ARC
8
bottom_labelLayer
10
17.9948237
20
9.671898
40
0.3250552
50
89.9196814
51
96.2621425
0
ARC
8
bottom_labelLayer
10
17.9976553
20
9.6389112
40
0.3580494
50
79.9359642
51
90.3802064
0
ARC
8
bottom_labelLayer
10
18.0215132
20
9.7681204
40
0.2266613
50
62.9722536
51
80.1664216
0
ARC
8
bottom_labelLayer
10
18.0464523
20
9.8192859
40
0.1697541
50
44.2290499
51
62.6227867
0
ARC
8
bottom_labelLayer
10
18.0390374
20
9.8160116
40
0.1773738
50
19.5610059
51
43.316213
0
ARC
8
bottom_labelLayer
10
17.9313067
20
9.7755477
40
0.2924419
50
7.5041323
51
19.9644533
0
ARC
8
bottom_labelLayer
10
17.7530357
20
9.7505129
40
0.4724582
50
359.7109139
51
7.690714
0
ENDSEC
0
EOF